<?xml version="1.0" encoding="UTF-8"?>
<svg version="1.1" viewBox="0 0 1600 1600" width="1280" height="1280" xmlns="http://www.w3.org/2000/svg">
<path transform="translate(761 41.9)" d="m0 0c0.932-0.00175 1.86-0.0035 2.83-0.00531 3.08-0.00439 6.15-0.00149 9.23 0.00189 2.14-6.74e-4 4.28-0.00164 6.41-0.0029 4.48-0.00147 8.95 6.67e-4 13.4 0.00534 5.74 0.0057 11.5 0.00241 17.2-0.00357 4.41-0.00361 8.83-0.00247 13.2 1.28e-4 2.12 6.68e-4 4.24-1.55e-4 6.36-0.00248 2.96-0.00253 5.91 0.00132 8.87 0.0069 1.32-0.00304 1.32-0.00304 2.66-0.00613 3.38 0.0119 6.18 0.0577 9.41 1.14 2.61 0.325 5.21 0.612 7.83 0.867 1.61 0.164 3.22 0.327 4.83 0.491 1.26 0.127 1.26 0.127 2.55 0.256 12 1.21 24.1 2.44 36.1 4.07 0.892 0.119 1.78 0.238 2.7 0.361 5.85 0.822 5.85 0.822 6.98 1.95 2.02 0.306 4.04 0.568 6.06 0.812 6.01 0.82 11.8 2.05 17.7 3.58 6.05 1.58 12.1 2.93 18.2 4.21 3.86 0.83 7.39 1.88 11 3.4 1.81 0.466 3.62 0.901 5.44 1.31 5.83 1.41 11.4 3.35 17 5.43 4.65 1.63 9.37 2.92 14.1 4.17 3.51 1.11 6.71 2.52 10.1 4.04 4.07 1.77 8.26 3.18 12.5 4.61 1.7 0.584 3.4 1.17 5.1 1.75 0.808 0.279 1.62 0.557 2.45 0.844 3.49 1.22 6.94 2.53 10.4 3.84v2c0.821 0.0941 1.64 0.188 2.49 0.285 4.22 0.859 7.79 2.38 11.7 4.15 0.772 0.346 1.54 0.692 2.34 1.05 6.91 3.15 13.6 6.65 20.3 10.3 0.753 0.407 1.51 0.815 2.28 1.23 0.66 0.363 1.32 0.726 2 1.1 1.95 0.925 3.8 1.45 5.91 1.9v2c0.887 0.289 1.77 0.578 2.69 0.875 2.82 0.956 5.56 1.99 8.31 3.12v2c0.67 0.0735 1.34 0.147 2.03 0.223 3.98 1.04 7.02 3.03 10.5 5.21 4.08 2.55 7.94 4.96 12.5 6.56v2c0.866 0.186 0.866 0.186 1.75 0.375 2.27 0.631 4.18 1.51 6.25 2.62v2l2.11 0.781c3.22 1.36 6.18 2.97 9.21 4.72 1.07 0.608 2.14 1.22 3.24 1.84 0.808 0.547 1.62 1.09 2.45 1.66v2c1.65 0.33 3.3 0.66 5 1v2c1.32 0.33 2.64 0.66 4 1v2c0.554 0.0928 1.11 0.186 1.68 0.281 2.94 0.911 4.96 2.41 7.45 4.22 3.32 2.44 3.32 2.44 6.88 4.5v2c1.14 0.433 1.14 0.433 2.31 0.875 2.69 1.12 2.69 1.12 5.69 3.12v2h3c1.36 1.31 2.69 2.65 4 4 1.84 1.33 3.71 2.6 5.61 3.85 0.459 0.379 0.918 0.758 1.39 1.15v2h3c1.69 1.64 3.35 3.31 5 5 1.99 1.35 3.99 2.69 6 4 1.88 1.63 1.88 1.63 3 3v2c0.619 0.309 1.24 0.619 1.88 0.938l4.12 2.06v2c0.558 0.24 1.12 0.48 1.69 0.727 2.81 1.55 4.89 3.47 7.25 5.65 2.57 2.38 5.1 4.66 7.88 6.79 0.721 0.606 1.44 1.21 2.18 1.84v2c0.99 0.33 1.98 0.66 3 1v2c0.99 0.33 1.98 0.66 3 1v2c0.743 0.227 1.48 0.454 2.25 0.688 3.31 1.58 4.54 3.42 6.75 6.31 0.763 0.598 1.53 1.2 2.31 1.81 4.39 3.57 8.87 7.75 10.7 13.2 0.99 0.33 1.98 0.66 3 1v2h2c1.36 1.64 2.69 3.32 4 5 0.784 0.784 1.57 1.57 2.38 2.38 2.06 2.06 4.02 4.13 5.94 6.31 0.512 0.581 1.02 1.16 1.55 1.76 1.14 1.55 1.14 1.55 1.14 3.55h2c1.51 1.46 1.51 1.46 3.12 3.38 0.539 0.626 1.08 1.25 1.63 1.9 1.24 1.73 1.24 1.73 1.24 3.73h2c1.61 1.73 3.14 3.54 4.62 5.38 0.817 0.998 1.63 2 2.48 3.02 1.9 2.6 1.9 2.6 1.9 4.6 0.99 0.33 1.98 0.66 3 1v2h2c1.05 1.64 2.04 3.31 3 5 0.835 1.08 0.835 1.08 1.69 2.19 1.31 1.81 1.31 1.81 1.31 3.81 0.99 0.33 1.98 0.66 3 1 2.04 2.43 2.04 2.43 4.19 5.44 0.715 0.989 1.43 1.98 2.17 3 1.64 2.57 1.64 2.57 1.64 4.57h2c1.62 2.27 1.62 2.27 3.44 5.25 2.5 4.09 2.5 4.09 5.29 7.98 1.28 1.77 1.28 1.77 1.28 3.77h2v3h2c1.69 2.49 3.27 4.98 4.81 7.56 0.858 1.42 1.72 2.84 2.58 4.25 0.637 1.05 0.637 1.05 1.29 2.11 1.31 2.05 2.7 4.01 4.14 5.97 2.18 3.1 2.18 3.1 2.18 5.1h2c0.559 1.16 1.12 2.32 1.7 3.51 2.14 4.28 4.59 8.28 7.18 12.3 3.97 6.27 7.66 12.6 11.1 19.2 1.02 1.88 2.04 3.75 3.06 5.62 0.489 0.9 0.977 1.8 1.48 2.73 0.965 1.75 1.95 3.5 2.95 5.23 0.458 0.797 0.915 1.59 1.39 2.41l1.24 2.12c0.883 1.88 0.883 1.88 0.883 4.88h2c0.33 1.98 0.66 3.96 1 6h2c9.52 20 9.52 20 13.6 29.1 0.928 2.02 1.87 4.03 2.83 6.04 0.461 0.978 0.923 1.96 1.4 2.96l1.24 2.6c0.883 2.34 0.883 2.34 0.883 6.34h2c0.675 1.58 1.34 3.16 2 4.75 0.371 0.882 0.743 1.76 1.12 2.67 0.875 2.58 0.875 2.58 0.875 6.58h2c0.371 1.45 0.371 1.45 0.75 2.94 0.819 2.89 1.86 5.53 3.12 8.25 2.07 4.52 3.6 9.14 5.13 13.9 0.867 2.58 1.82 5.07 2.87 7.57 1.97 4.84 3.69 9.75 5.38 14.7 0.271 0.777 0.541 1.55 0.82 2.36 1.31 3.89 2.3 7.17 1.93 11.3h2c0.121 0.568 0.242 1.14 0.367 1.72 0.168 0.772 0.335 1.54 0.508 2.34 0.162 0.754 0.325 1.51 0.492 2.29 1.38 5.77 3.18 11.4 5.01 17 2.14 6.7 3.86 13.4 5.37 20.3 0.528 3.45 0.528 3.45 2.26 6.32 0.307 1.68 0.569 3.37 0.812 5.06 0.763 4.82 1.81 9.47 3.06 14.2 2.18 8.22 3.51 16.5 4.82 24.9 0.157 0.998 0.314 2 0.475 3.02 0.205 1.35 0.205 1.35 0.415 2.72 0.216 2.05 0.216 2.05 1.42 3.06 0.376 2.79 0.707 5.57 1 8.38 0.164 1.55 0.33 3.1 0.5 4.65 0.0722 0.69 0.144 1.38 0.219 2.09 0.259 2.11 0.259 2.11 1.28 4.89 0.347 2.69 0.658 5.37 0.938 8.06 0.176 1.64 0.351 3.27 0.527 4.91 0.133 1.25 0.133 1.25 0.269 2.54 0.411 3.85 0.838 7.71 1.27 11.6 0.144 1.31 0.289 2.62 0.438 3.97 0.322 2.9 0.662 5.79 1.01 8.68 3.67 30.3 4.84 60.4 4.8 90.9-4e-4 0.746-8.01e-4 1.49-0.00121 2.26-0.00275 4.37-0.0135 8.73-0.0355 13.1-0.00979 1.97-0.0167 3.94-0.0235 5.91-0.0854 11-0.267 22.2-2.19 33.1-0.263 2.67-0.505 5.33-0.719 8-0.0628 0.76-0.126 1.52-0.19 2.3-0.199 2.42-0.395 4.84-0.591 7.26-0.131 1.6-0.263 3.19-0.395 4.79-0.129 1.57-0.258 3.14-0.387 4.71-0.0952 1.16-0.0952 1.16-0.192 2.34-0.28 3.43-0.544 6.86-0.772 10.3-0.379 5.67-1.01 11.1-2.22 16.6-1.13 5.74-1.74 11.6-2.47 17.4-3.5 27.2-3.5 27.2-6.06 32.3-0.336 1.79-0.635 3.58-0.914 5.38-1 6.2-2.18 12.3-3.46 18.5-0.218 1.05-0.437 2.1-0.662 3.18-1.41 6.63-3.03 13.1-4.99 19.6-1.15 4.01-2.1 8.05-3.03 12.1-1.42 6.16-2.98 12.2-4.94 18.2-0.235 0.731-0.469 1.46-0.711 2.21-1.32 4.03-2.74 8-4.23 12-1.57 4.27-2.86 8.55-4.06 12.9-1.32 4.73-2.84 9.06-4.94 13.5-2.86 6.43-4.98 13.2-7.25 19.9-2.39 6.93-5.13 13.5-8.3 20.1-1.72 3.6-3.23 7.18-4.52 11-1.86 5.33-4.32 10.2-6.89 15.2-2.61 5.11-5.03 10.3-7.49 15.5-3.77 7.96-7.69 15.8-11.9 23.5-1.46 2.7-2.76 5.22-3.73 8.14h-2c-0.33 1.65-0.66 3.3-1 5h-2l-0.25 2.12c-0.921 3.53-2.68 5.89-4.75 8.88-0.33 0.99-0.66 1.98-1 3h-2c-0.112 0.726-0.224 1.45-0.34 2.2-0.69 2.93-1.72 5.02-3.22 7.61-0.455 0.79-0.91 1.58-1.38 2.39-0.349 0.592-0.699 1.18-1.06 1.79h-2c-0.227 0.639-0.454 1.28-0.688 1.94-1.8 4.2-4.05 8.1-6.31 12.1h-2l-0.375 1.75c-0.631 2.27-1.51 4.18-2.62 6.25h-2c-0.248 0.695-0.495 1.39-0.75 2.11-1.44 3.33-3.24 6.18-5.25 9.21-0.701 1.07-1.4 2.14-2.12 3.24-0.619 0.808-1.24 1.62-1.88 2.45h-2v3h-2c-0.264 0.731-0.529 1.46-0.801 2.22-1.2 2.79-2.57 4.9-4.39 7.32l-1.87 2.51c-0.642 0.851-1.28 1.7-1.95 2.58-1.27 1.7-2.54 3.4-3.81 5.1-0.563 0.748-1.13 1.5-1.71 2.27-1.21 1.63-2.35 3.31-3.48 5.01h-2v3c-1.38 1.69-1.38 1.69-3 3h-2c-0.289 0.763-0.578 1.53-0.875 2.31-1.12 2.69-1.12 2.69-3.12 5.69h-2c-0.309 0.619-0.619 1.24-0.938 1.88l-2.06 4.12h-2c-0.248 0.552-0.495 1.1-0.75 1.67-1.49 2.78-3.29 5.11-5.25 7.58-0.701 0.892-1.4 1.78-2.12 2.7-0.619 0.675-1.24 1.35-1.88 2.05h-2c-0.22 0.538-0.441 1.08-0.668 1.63-1.78 3.17-4.17 5.67-6.64 8.31-0.474 0.512-0.947 1.02-1.44 1.55-2.28 2.46-4.59 4.85-6.98 7.2-2.39 2.29-2.39 2.29-4.27 5.31h-2c-0.33 0.99-0.66 1.98-1 3h-2c-0.247 0.619-0.495 1.24-0.75 1.88-1.49 2.53-2.69 2.84-5.25 4.12-0.683 1.33-1.35 2.66-2 4-0.99 0.33-1.98 0.66-3 1-0.33 0.99-0.66 1.98-1 3h-2c-0.33 0.99-0.66 1.98-1 3-1.57 1.54-1.57 1.54-3.56 3.19-3.83 3.23-7.32 6.68-10.8 10.3-1.66 1.5-1.66 1.5-3.66 1.5v2c-3.46 3-3.46 3-6 3v2c-1.73 1.61-3.54 3.14-5.38 4.62-0.998 0.817-2 1.63-3.02 2.48-2.6 1.9-2.6 1.9-4.6 1.9-0.33 0.99-0.66 1.98-1 3h-2v2c-3.46 3-3.46 3-6 3v2c-1.9 1.73-1.9 1.73-4.38 3.62-0.812 0.632-1.62 1.26-2.46 1.91-2.16 1.46-2.16 1.46-4.16 1.46v2c-1.64 1.05-3.31 2.04-5 3-0.722 0.557-1.44 1.11-2.19 1.69-1.81 1.31-1.81 1.31-3.81 1.31v2c-1.85 1.36-3.75 2.64-5.69 3.88-3.15 2.02-6.15 3.99-9.02 6.38-2.29 1.74-2.29 1.74-5.29 1.74v2c-2.43 1.65-4.86 3.18-7.38 4.69-4.79 2.92-9.51 5.85-14.1 9.12-5.41 3.86-11 7.8-17.6 9.19v2c-0.874 0.42-0.874 0.42-1.77 0.848-6.08 2.98-11.9 6.26-17.7 9.8-2.57 1.36-2.57 1.36-5.57 1.36v2c-3.1 1.51-6.21 3.01-9.31 4.5-0.881 0.429-1.76 0.859-2.67 1.3-0.848 0.406-1.7 0.812-2.57 1.23-0.78 0.377-1.56 0.754-2.36 1.14-2.08 0.826-2.08 0.826-5.08 0.826v2c-1.98 0.33-3.96 0.66-6 1v2c-0.762 0.315-1.52 0.629-2.31 0.953-5.67 2.35-11.3 4.73-16.9 7.35-1.84 0.699-1.84 0.699-4.84 0.699v2c-0.895 0.315-1.79 0.629-2.71 0.953-1.21 0.428-2.42 0.856-3.66 1.3-0.635 0.225-1.27 0.449-1.92 0.68-4.6 1.64-9.13 3.43-13.6 5.37-2.09 0.699-2.09 0.699-6.09 0.699v2c-1.05 0.326-2.1 0.652-3.18 0.988-8.68 2.68-8.68 2.68-17.3 5.51-4.19 1.42-8.41 2.74-12.6 4.06-0.67 0.21-1.34 0.42-2.03 0.637-3.22 1-6.44 1.97-9.69 2.89-3.06 0.817-3.06 0.817-5.53 1.91-2.88 1.1-5.77 1.74-8.79 2.37-3.53 0.782-7.02 1.68-10.5 2.57-18.7 4.71-18.7 4.71-27.1 5.69-3.04 0.0243-3.04 0.0243-4.19 1.38-2.26 0.356-4.54 0.659-6.81 0.938-4.77 0.602-9.51 1.25-14.2 2.06-12.1 2.07-24.2 3.51-36.4 4.56-0.738 0.0648-1.48 0.13-2.24 0.196-10.1 0.882-20.2 1.61-30.3 1.95-3.85 0.129-7.62 0.35-11.4 0.814-13.8 1.44-27.9 0.38-41.7-0.461-1.52-0.0884-3.03-0.176-4.55-0.264-2.99-0.173-5.98-0.353-8.97-0.537-2.84-0.174-5.68-0.334-8.52-0.481-8.8-0.472-17.4-1.44-26.1-2.78-7.39-1.12-14.7-2.14-22.2-2.76-3.77-0.363-7.48-0.993-11.2-1.68-0.694-0.122-1.39-0.244-2.1-0.369-3.53-0.635-7-1.37-10.5-2.26-2.7-0.674-5.07-1.14-7.8-1.43-3.11-0.395-5.8-1.01-8.78-1.89-5.62-1.6-11.3-2.91-17-4.31-6.75-1.67-13.5-3.44-20.2-5.3v-2c-1.26-0.0825-2.52-0.165-3.81-0.25-4.74-0.525-8.8-1.93-13.2-3.64-3.16-1.18-6.35-2.15-9.59-3.11-4.66-1.4-9-3.07-13.4-5.13-2.19-1.01-2.19-1.01-5.48-1.87-3.56-1.02-6.71-2.4-10.1-3.94-2.51-1.09-5.03-1.99-7.62-2.87-4.45-1.58-8.62-3.53-12.8-5.69-5.86-3.01-11.7-5.44-18-7.5v-2c-1.98-0.33-3.96-0.66-6-1v-2c-0.643-0.0812-1.29-0.162-1.95-0.246-4.24-1.05-7.95-2.92-11.9-4.82l-2.39-1.14c-1.94-0.927-3.87-1.86-5.8-2.79v-2c-0.701-0.0825-1.4-0.165-2.12-0.25-3.53-0.921-5.89-2.68-8.88-4.75-0.99-0.33-1.98-0.66-3-1v-2c-0.732-0.11-1.46-0.221-2.22-0.334-2.93-0.701-4.77-1.68-7.29-3.32l-2.49-1.6-2.56-1.68c-1.69-1.09-3.38-2.19-5.07-3.28-0.743-0.486-1.49-0.972-2.25-1.47-1.99-1.24-4-2.3-6.12-3.31v-2l-1.72-0.316c-2.67-0.801-4.5-2.02-6.78-3.62-2.76-1.93-5.45-3.63-8.5-5.06v-2l-2.14-0.781c-3.11-1.32-5.82-2.92-8.68-4.72l-2.96-1.84-2.23-1.66v-2l-2.22-0.785c-2.86-1.25-4.87-2.68-7.28-4.65-2.4-1.93-4.66-3.66-7.31-5.25-2.47-1.48-4.19-3.25-6.19-5.31l-3-2v-2l-1.62-0.75c-4.13-2.17-8.38-4.59-11.4-8.25v-2h-3c-1.69-1.38-1.69-1.38-3-3v-2l-1.72-0.793c-6.17-3.26-11-7.79-15.3-13.2-2-1.56-4.04-3.03-6.1-4.51-2.39-1.87-4.1-4.06-5.9-6.49-0.66-0.33-1.32-0.66-2-1v-2c-0.99-0.33-1.98-0.66-3-1v-2h-2c-1.63-1.38-1.63-1.38-3-3v-2c-0.99-0.33-1.98-0.66-3-1v-2c-0.99-0.33-1.98-0.66-3-1v-2c-0.99-0.33-1.98-0.66-3-1v-2h-2c-1.35-1.65-2.69-3.32-4-5-0.66-0.33-1.32-0.66-2-1v-2h-2c-1.51-1.46-1.51-1.46-3.12-3.38-0.808-0.94-0.808-0.94-1.63-1.9-1.24-1.73-1.24-1.73-1.24-3.73h-2c-1.54-1.72-3.01-3.5-4.44-5.31-3.01-3.85-3.01-3.85-6.35-7.42-1.21-1.27-1.21-1.27-1.21-3.27h-2c-1.75-2.05-3.39-4.1-5-6.25l-1.37-1.78c-2.18-2.87-4.19-5.66-5.63-8.97h-2c-1.63-1.93-3.14-3.84-4.62-5.88-0.42-0.556-0.84-1.11-1.27-1.68-3.1-4.18-3.1-4.18-3.1-6.44h-2c-4-5.41-4-5.41-4-8h-2c-1.63-2.09-3.14-4.18-4.62-6.38-0.42-0.603-0.84-1.21-1.27-1.83-3.1-4.53-3.1-4.53-3.1-6.8h-2c-1.24-1.74-2.39-3.55-3.5-5.38-2.44-4.05-2.44-4.05-5.5-7.62v-3h-2l-1.69-3.06c-1.53-2.71-3.2-5.2-5.06-7.69-2.25-3.25-2.25-3.25-2.25-6.25h-2l-0.777-1.48c-2.04-3.78-4.16-7.47-6.52-11.1-0.403-0.613-0.806-1.23-1.22-1.86-0.807-1.22-1.62-2.43-2.44-3.64-2.18-3.3-3.59-6.01-4.04-9.96h-2c-1-1.96-2-3.91-3-5.88l-1.69-3.3c-1.31-2.82-1.31-2.82-1.31-4.82h-2c-0.346-0.926-0.346-0.926-0.699-1.87-2.06-5.36-4.38-10.3-7.35-15.2-0.953-1.91-0.953-1.91-0.953-4.91h-2c-0.33-1.65-0.66-3.3-1-5h-2l-0.594-1.84c-1.98-5.81-4.36-11.3-7.16-16.7-3.02-5.91-5.87-11.9-8.56-17.9-0.325-0.729-0.65-1.46-0.985-2.21-5.7-12.9-5.7-12.9-5.7-17.3h-2c-0.33-2.64-0.66-5.28-1-8h-2l-1.29-3.71c-0.592-1.7-1.18-3.4-1.78-5.11-0.316-0.908-0.632-1.82-0.957-2.75-1.54-4.4-3.1-8.79-4.76-13.2-4.78-12.6-8.59-25.3-12.2-38.3-1.36-4.83-2.83-9.6-4.38-14.4-2.2-6.93-3.96-13.9-5.54-21-0.89-3.93-1.95-7.8-3.02-11.7-2.08-7.68-3.66-15.4-5.13-23.2-0.26-1.36-0.52-2.73-0.78-4.09-1.64-8.66-3.19-17.3-4.58-26-0.492-3.02-1.05-6.01-1.64-9.01-1.12-5.99-1.67-12-2.24-18.1-0.0766-0.791-0.153-1.58-0.232-2.4-0.0658-0.71-0.132-1.42-0.199-2.15-0.236-2.13-0.236-2.13-1.27-4.91-0.203-1.65-0.364-3.31-0.5-4.97l-0.25-2.98-0.25-3.11c-0.166-2.01-0.333-4.02-0.5-6.04-0.0826-0.998-0.165-2-0.25-3.02-0.224-2.58-0.477-5.16-0.746-7.73-2.53-25.1-2.7-50.2-2.69-75.3 5.28e-4 -2.37-6.42e-4 -4.75-0.00194-7.12-9.73e-4 -3.81 0.00485-7.61 0.0161-11.4 0.00384-1.42 0.00631-2.83 0.00726-4.25 0.00798-7.27 0.156-14.4 0.933-21.7 0.325-3.29 0.42-6.58 0.524-9.88 0.34-10.8 1.15-21.5 2.15-32.2 0.0615-0.679 0.123-1.36 0.186-2.06 0.674-7.38 1.54-14.6 2.95-21.9 0.512-2.78 0.759-5.53 0.922-8.35 0.336-4.64 1.05-9.03 2.03-13.6 0.458-2.31 0.741-4.58 0.969-6.93 0.362-3.64 1.08-7.11 1.89-10.7 1.56-7.08 2.9-14.2 4.31-21.3 4.85-24.4 4.85-24.4 7.3-32.5 0.41-1.46 0.816-2.92 1.22-4.38 0.21-0.758 0.42-1.52 0.637-2.3l0.645-2.33c0.427-1.54 0.854-3.08 1.28-4.62 0.307-1.11 0.307-1.11 0.621-2.24 0.554-1.98 1.12-3.95 1.7-5.92 0.896-3.19 1.6-6.36 2.24-9.61 1.84-7.26 4.6-14.3 7.1-21.4 2.37-6.7 4.6-13.4 6.54-20.2 0.853-2.53 1.81-4.84 2.92-7.27 2.17-4.78 3.87-9.66 5.54-14.6 2.2-6.41 4.52-12.6 7.45-18.8 1.5-3.19 2.78-6.45 4.07-9.73 1.95-4.91 4.01-9.77 6.05-14.6h2l0.309-2.6c0.753-3.7 2.01-6.43 3.75-9.77 0.637-1.24 1.27-2.47 1.91-3.71 0.333-0.64 0.665-1.28 1.01-1.94 1.71-3.31 3.36-6.64 5.02-9.97 0.666-1.33 1.33-2.67 2-4 0.493-0.986 0.493-0.986 0.996-1.99 2.67-5.34 5.34-10.7 8-16h2c0.0928-0.699 0.186-1.4 0.281-2.12 0.863-3.46 2.36-5.97 4.22-9.01 2.61-4.27 2.61-4.27 4.5-8.88h2c0.33-1.65 0.66-3.3 1-5h2c0.248-0.66 0.495-1.32 0.75-2 1.57-3.76 3.4-7.37 5.25-11h2c0.289-0.928 0.578-1.86 0.875-2.81 1.12-3.19 1.12-3.19 3.12-6.19h2c0.0619-0.66 0.124-1.32 0.188-2 1.12-4.12 3.15-7.66 5.81-11h2c0.236-0.687 0.472-1.37 0.715-2.08 1.55-3.51 3.62-6.5 5.85-9.61 2.94-4.02 2.94-4.02 5.44-8.31h2c0.33-1.32 0.66-2.64 1-4h2l0.781-2.17c1.29-3 2.85-5.47 4.72-8.14 0.608-0.883 1.22-1.77 1.84-2.68 0.82-0.996 0.82-0.996 1.66-2.01h2c0.371-0.804 0.371-0.804 0.75-1.62 1.56-2.96 3.28-5.67 5.25-8.38h2c0.0825-0.578 0.165-1.15 0.25-1.75 0.969-2.91 2.58-4.08 4.75-6.25 1.72-2.17 3.4-4.35 5.06-6.56 5.68-7.56 5.68-7.56 7.94-9.44h2c0.309-0.619 0.619-1.24 0.938-1.88l2.06-4.12h2c0.213-0.531 0.425-1.06 0.645-1.61 1.88-3.31 4.44-5.9 7.04-8.64 1.09-1.15 2.17-2.31 3.25-3.46 0.787-0.839 0.787-0.839 1.59-1.69 2.48-2.69 4.83-5.48 7.16-8.3 1.3-1.29 1.3-1.29 3.3-1.29v-2c4.3-4.77 4.3-4.77 8-6 0.33-0.99 0.66-1.98 1-3h2c0.33-0.99 0.66-1.98 1-3h2v-2c1.65-1.35 3.32-2.69 5-4 0.33-0.66 0.66-1.32 1-2h2v-2c1.64-1.36 3.32-2.69 5-4l2.38-2.38c2.06-2.06 4.13-4.02 6.31-5.94l1.76-1.55c1.55-1.14 1.55-1.14 3.55-1.14l1-3h2v-2c3.46-3 3.46-3 6-3v-2c1.9-1.73 1.9-1.73 4.38-3.62l2.46-1.91c2.16-1.46 2.16-1.46 4.16-1.46v-2c3.46-3 3.46-3 6-3v-2c5.41-4 5.41-4 8-4v-2c3.33-4.31 9.19-6.69 14-9v-2c2.91-2.04 4.4-3 8-3 0.33-0.99 0.66-1.98 1-3 2.33-1.75 2.33-1.75 5.25-3.56 0.954-0.599 1.91-1.2 2.89-1.82 2.58-1.46 5.08-2.6 7.86-3.62v-2c2.91-2.04 4.4-3 8-3v-2c6.75-4 6.75-4 9-4v-2c1.65-0.33 3.3-0.66 5-1v-2c0.608-0.329 1.22-0.657 1.84-0.996 5.79-3.14 11.5-6.33 17.3-9.57 0.687-0.386 1.37-0.772 2.08-1.17 2.91-1.64 5.82-3.28 8.71-4.96l2.39-1.38 1.99-1.16c1.7-0.777 1.7-0.777 4.7-0.777v-2c1.12-0.482 2.24-0.964 3.39-1.46 1.47-0.638 2.95-1.28 4.42-1.91 1.11-0.476 1.11-0.476 2.24-0.961 0.712-0.309 1.42-0.619 2.16-0.938 0.655-0.283 1.31-0.566 1.98-0.857 2.07-0.944 2.07-0.944 4.81-2.87h3v-2c4-1.68 8-3.34 12-5 0.963-0.403 1.93-0.807 2.92-1.22 1.31-0.539 1.31-0.539 2.64-1.09 1.18-0.489 1.18-0.489 2.38-0.988 2.06-0.699 2.06-0.699 5.06-0.699v-2c0.877-0.302 0.877-0.302 1.77-0.611 2.66-0.919 5.32-1.84 7.98-2.76 0.92-0.317 1.84-0.634 2.79-0.961 0.889-0.309 1.78-0.619 2.7-0.938 1.23-0.424 1.23-0.424 2.48-0.857 2.29-0.813 2.29-0.813 4.34-1.98 1.95-0.892 1.95-0.892 5.95-0.892v-2c0.834-0.254 1.67-0.508 2.53-0.77 5.79-1.77 11.6-3.57 17.3-5.51 3.22-1.06 6.48-2.02 9.73-2.97 1.77-0.536 3.52-1.11 5.27-1.71 4.3-1.4 8.68-2.51 13.1-3.63 3.34-0.66 3.34-0.66 6.13-2.41 1.35-0.308 2.7-0.57 4.06-0.812 4.59-0.876 9.1-1.96 13.6-3.12 14.9-3.78 30-6.23 45.2-8.58 2.8-0.435 5.59-0.881 8.38-1.33 9.58-1.51 19.1-2.68 28.8-3.5 1.24-0.107 1.24-0.107 2.51-0.216 0.726-0.0595 1.45-0.119 2.2-0.18 2.17-0.202 2.17-0.202 4.23-0.757 4.1-0.686 8.13-0.631 12.3-0.622z" fill="#000001"/>
<path transform="translate(396,431)" d="m0 0c39.8-0.0229 79.5-0.0405 119-0.0511 4.7-0.00125 9.41-0.00254 14.1-0.00387 0.937-2.62e-4 1.87-5.25e-4 2.84-7.95e-4 15.1-0.00434 30.3-0.0122 45.4-0.0214 15.5-0.00938 31.1-0.0149 46.6-0.0169 9.58-0.00137 19.2-0.00567 28.7-0.0138 6.58-0.00532 13.2-0.00688 19.8-0.00558 3.79 6.35e-4 7.58-2.78e-4 11.4-0.0057 26.1-0.0353 26.1-0.0353 38.7 0.548 1.2 0.0551 1.2 0.0551 2.43 0.111 41.6 2.24 80.5 18.5 115 41.6 1.23 0.829 1.23 0.829 2.48 1.67 0.739 0.514 1.48 1.03 2.24 1.56 0.65 0.451 1.3 0.903 1.97 1.37 0.455 0.401 0.91 0.801 1.38 1.21v2c0.868 0.391 0.868 0.391 1.75 0.789 2.4 1.29 4.17 2.76 6.18 4.59 2.17 1.95 4.3 3.8 6.62 5.56 3.55 3.01 6.44 6.51 9.44 10.1 1.06 1.25 2.12 2.5 3.19 3.75 0.721 0.849 0.721 0.849 1.46 1.71 1.18 1.34 2.45 2.6 3.73 3.85 1.62 1.69 1.62 1.69 1.62 3.69h2c1.73 1.86 1.73 1.86 3.62 4.31 0.947 1.2 0.947 1.2 1.91 2.43 1.46 2.26 1.46 2.26 1.46 5.26h2c1.29 1.77 1.29 1.77 2.76 4.25 0.539 0.91 1.08 1.82 1.63 2.76 0.572 0.988 1.14 1.98 1.73 2.99 0.587 1.01 1.17 2.02 1.78 3.06 15 26 24.9 52.6 29.6 82.2 0.409 2.35 0.907 4.63 1.48 6.95 5.5 24.6 1.94 50.5-3 74.8-0.17 0.871-0.341 1.74-0.517 2.64-7.52 37.9-27.2 74-53.5 102-1.92 2.07-3.75 4.2-5.58 6.36-2.83 3.24-5.83 6.09-9.12 8.86-1.68 1.42-3.34 2.87-4.98 4.34-12.4 11.1-26.5 20.3-41.2 28.1-0.699 0.373-1.4 0.745-2.12 1.13-11 5.66-22.7 9.69-34.5 13.5-16.8 5.46-32.2 12-47.5 20.9-1.03 0.596-1.03 0.596-2.08 1.2-2.96 1.73-5.89 3.5-8.81 5.3-6.63 4.07-13.4 7.88-20.2 11.7-5.34 3.07-10.6 6.17-15.9 9.42-0.91 0.564-1.82 1.13-2.76 1.71-1.7 1.06-3.39 2.13-5.07 3.21-1.13 0.701-1.13 0.701-2.28 1.42-0.646 0.412-1.29 0.825-1.96 1.25-1.99 0.75-1.99 0.75-6.99-0.25v-133c3.72-1.86 4.78-2.25 8.65-2.21 0.914 0.00338 1.83 0.00676 2.77 0.0102 0.979 0.0135 1.96 0.0269 2.97 0.0408 1.52 0.0078 1.52 0.0078 3.06 0.0158 3.23 0.0178 6.45 0.049 9.68 0.0819 3.23 0.0276 6.47 0.0523 9.7 0.0712 2.01 0.0123 4.02 0.0299 6.04 0.0533 0.908 0.00653 1.82 0.0131 2.75 0.0198 0.801 0.00825 1.6 0.0165 2.43 0.025 2.04 0.0192 2.04 0.0192 3.96-1.11 1.65-0.243 3.3-0.44 4.95-0.613 11.4-1.26 22.2-2.52 33-6.39 1.2-0.42 2.41-0.84 3.65-1.27 14.2-5.2 26.5-13.4 38.4-22.7 0.833-0.643 1.67-1.29 2.52-1.95 24.2-20 39.2-51.3 43.5-82.1 0.531-5.82 0.536-11.7 0.5-17.5-0.00209-0.784-0.00419-1.57-0.00635-2.38-0.203-37-14.8-70.3-40.9-96.6-22.2-21.4-53.2-36.3-84.3-36.7-1.11-0.0149-1.11-0.0149-2.24-0.03-2.47-0.0317-4.94-0.0566-7.42-0.0811-1.81-0.0207-3.62-0.0417-5.43-0.0628-4.98-0.0564-9.96-0.105-14.9-0.153-3.15-0.0305-6.3-0.0633-9.45-0.0967-28.5-0.298-57-0.402-85.4-0.366-2.38 0.00287-4.75 0.0054-7.13 0.00783-14.9 0.0155-29.8 0.0358-44.7 0.089-5.96 0.0209-11.9 0.0353-17.9 0.0448-3.48 0.00596-6.96 0.0156-10.4 0.0344-3.8 0.0191-7.61 0.026-11.4 0.0301-1.12 0.00876-2.23 0.0175-3.38 0.0265-14.5-0.0184-20.8-7.46-30.6-17.2-0.772-0.767-1.54-1.53-2.34-2.32-2.52-2.51-5.04-5.02-7.56-7.54-1.76-1.75-3.52-3.51-5.28-5.26-3.67-3.66-7.34-7.33-11-11-3.77-3.77-7.55-7.53-11.3-11.3-4.57-4.55-9.14-9.1-13.7-13.7-1.74-1.74-3.48-3.47-5.22-5.2-2.43-2.41-4.85-4.83-7.26-7.25-1.09-1.08-1.09-1.08-2.2-2.17-0.653-0.659-1.31-1.32-1.98-2-0.572-0.571-1.14-1.14-1.73-1.73-1.21-1.58-1.21-1.58-1.21-4.58z" fill="#DCDDDF"/>
<path transform="translate(645 611)" d="m0 0c5.03-0.00599 10.1-0.0168 15.1-0.0296 6.85-0.0171 13.7-0.0228 20.5-0.021 2.54-7.96e-4 5.07-0.00491 7.61-0.0126 3.5-0.00984 6.99-7e-3 10.5-0.00105 1.01-0.00562 2.01-0.0112 3.05-0.017 14.8 0.0648 27.2 3.07 38.4 13.3 9.43 10.2 14.7 21.9 14.4 35.9-0.766 9.75-4.22 16.5-10.2 24.1-0.463 0.638-0.926 1.28-1.4 1.93-6.23 8.11-15.7 13.2-25.6 15.1-11.3 1.23-22.7 1.12-34.1 1.08-3.16-0.013-6.32-0.0193-9.48-0.0241-7.85-0.0132-15.7-0.0373-23.6-0.0614-31.7-0.192-31.7-0.192-63.5 0.448-1.09 0.0392-2.17 0.0785-3.29 0.119-4.4-0.198-4.4-0.198-8.13 1.44-0.0919 1.47-0.114 2.95-0.108 4.43 0.00131 0.963 0.00262 1.93 0.00397 2.92 0.00653 1.07 0.0131 2.14 0.0198 3.24 0.00282 1.13 0.00565 2.25 0.00856 3.42 0.0105 3.81 0.0278 7.62 0.0449 11.4 0.00903 2.72 0.0164 5.44 0.0235 8.15 0.0117 4.35 0.0238 8.7 0.038 13.1 0.0348 10.8 0.0509 21.6 0.0556 32.4 3.7e-4 0.78 7.4e-4 1.56 0.00112 2.36 0.00298 6.43 0.00515 12.9 0.0069 19.3 0.00159 5.79 0.00386 11.6 0.00715 17.4 4.6e-4 0.826 9.21e-4 1.65 0.00139 2.5 0.00855 13.4 0.053 26.8 0.11 40.1 0.0574 13.7 0.073 27.5 0.0506 41.2-0.0124 8.47 0.00825 16.9 0.0713 25.4 0.0402 5.81 0.04 11.6 0.0082 17.4-0.0172 3.35-0.0105 6.7 0.0323 10.1 0.0437 3.64 0.0197 7.27-0.0211 10.9 0.0288 1.06 0.0577 2.11 0.0874 3.2-0.0779 3.08-0.267 5.3-1.44 8.15-3.34 3.04-6.98 4.99-11 7-1.79 1.05-3.57 2.11-5.34 3.18-1.86 1.09-3.73 2.17-5.6 3.25-1.01 0.591-2.03 1.18-3.08 1.79-5.76 3.34-11.5 6.66-17.3 9.96-0.614 0.35-1.23 0.7-1.86 1.06-2.97 1.69-5.95 3.39-8.93 5.07-8.82 5.01-17.7 10.1-26 15.9-3.35 2.13-5.92 2.58-9.86 2.81-1.86-1.86-1.13-4.98-1.13-7.47-0.00175-0.687-0.00351-1.37-0.00531-2.08-0.0047-2.33-0.00218-4.66 2.34e-4 -7-0.00187-1.68-0.00417-3.35-0.00687-5.03-0.00615-4.63-0.00598-9.26-0.00481-13.9 2.03e-4 -4.99-0.00531-9.97-0.0101-15-0.00833-9.78-0.0111-19.6-0.0116-29.3-4.74e-4 -7.95-0.00253-15.9-0.0057-23.9-0.00881-22.5-0.0134-45.1-0.0127-67.6 4e-5 -1.22 7.99e-5 -2.43 1.21e-4 -3.68 4.09e-5 -1.22 8.18e-5 -2.43 1.24e-4 -3.69 4.06e-4 -19.7-0.00916-39.4-0.0233-59.2-0.0144-20.2-0.0213-40.5-0.0204-60.7 3.32e-4 -11.4-0.00242-22.7-0.0132-34.1-0.0091-9.68-0.0113-19.4-0.00449-29 0.00327-4.94 0.00331-9.88-0.00535-14.8-0.00785-4.52-0.00645-9.05 0.00228-13.6 0.00154-1.63-2.91e-4 -3.27-0.00586-4.9-0.0503-15.8-0.0503-15.8 2.26-23.2 2.93-1.47 5.55-1.17 8.82-1.21 1.07-0.0148 1.07-0.0148 2.16-0.03 2.42-0.032 4.85-0.0567 7.27-0.0811 1.75-0.0209 3.51-0.042 5.26-0.0634 4.85-0.057 9.69-0.106 14.5-0.153 3.06-0.0296 6.12-0.0606 9.18-0.0918 37.1-0.372 74.3-0.513 111-0.554z" fill="#2FB7FA"/>
<path transform="translate(982,624)" d="m0 0c4.02 0.492 7.23 1.92 10.8 3.7 1.72 0.843 1.72 0.843 3.48 1.7 0.608 0.3 1.22 0.601 1.84 0.91 3.25 1.6 6.5 3.19 9.75 4.77 1 0.489 1 0.489 2.03 0.988 6.89 3.35 13.8 6.59 20.8 9.8 1.77 0.816 1.77 0.816 3.57 1.65 2.24 1.03 4.48 2.07 6.72 3.1 4.48 2.08 8.95 4.18 13.4 6.3 4.16 1.96 8.32 3.9 12.5 5.82 14.4 6.63 28.7 13.5 42.9 20.4 13.6 6.66 27.3 13.1 41.1 19.4 4.64 2.14 9.27 4.29 13.9 6.46 0.749 0.346 1.5 0.692 2.27 1.05 11 5.17 11 5.17 12.9 8.89 0.152 1.55 0.247 3.1 0.312 4.65 0.0413 0.96 0.0826 1.92 0.125 2.91 0.0581 1.56 0.0581 1.56 0.117 3.15 0.0421 1.08 0.0843 2.16 0.128 3.27 0.396 10.9 0.459 21.7 0.447 32.6 0.00136 2.14 0.00314 4.28 0.00531 6.42 0.0045 5.74 0.00281 11.5-3.79e-4 17.2-0.00257 6.07-1.74e-4 12.1 0.00139 18.2 0.00181 10.2-5.55e-4 20.4-0.00534 30.6-0.00542 11.7-0.00369 23.4 0.00183 35.1 0.00458 10.1 0.00516 20.3 0.00256 30.4-0.00154 6.01-0.00183 12 0.00154 18 0.00593 12.9-0.0175 25.8-0.102 38.7-0.025 3.85-0.0385 7.69-0.0419 11.5-0.00559 4.42-0.0406 8.84-0.0998 13.3-0.0169 1.59-0.0238 3.19-0.0198 4.78 0.0195 11.8 0.0195 11.8-2.14 15.2-3.42 2.97-7.92 4.63-12.1 6.31-5.73 2.4-11.3 4.95-16.9 7.75-0.662 0.333-1.32 0.666-2.01 1.01-3.09 1.56-6.15 3.15-9.2 4.77-1.04 0.548-2.09 1.1-3.16 1.66-0.9 0.485-1.8 0.969-2.73 1.47-3.07 1.19-5.39 1.29-8.65 1.03-1.95-1.95-1.41-5.56-1.55-8.22-0.0631-1.14-0.0631-1.14-0.127-2.29-0.439-8.7-0.468-17.4-0.448-26.1 0.00515-2.7 1.36e-4 -5.41-0.00635-8.11-0.00348-10.2 0.126-20.4 0.364-30.6 0.789-34.2 0.929-68.3 0.902-102-0.00436-6.1-0.00122-12.2 0.00363-18.3 0.00459-6.01 0.00516-12 0.00256-18-0.00153-3.54-0.00186-7.07 0.00154-10.6 0.0111-13.5-0.0615-27-0.52-40.5-0.0303-1.05-0.0607-2.1-0.0919-3.18-0.0381-0.96-0.0761-1.92-0.115-2.91-0.0459-1.26-0.0459-1.26-0.0927-2.54-0.203-2.45-0.203-2.45-2.32-5.15-2.11-1.23-4.18-2.32-6.38-3.38-1.03-0.504-1.03-0.504-2.08-1.02-16.6-8.07-33.5-15.7-50.3-23.3-5.51-2.5-10.9-5.13-16.3-7.88-3.77-1.85-7.6-3.57-11.4-5.26-0.684-0.303-1.37-0.605-2.07-0.917-3.12-1.36-6.12-2.51-9.43-3.27 9.22e-4 1.03 0.00184 2.06 0.00279 3.11 0.0223 25.1 0.0387 50.2 0.049 75.3 0.00514 12.1 0.0121 24.3 0.0236 36.4 0.01 10.6 0.0164 21.2 0.0186 31.7 0.0013 5.6 0.00431 11.2 0.0116 16.8 0.00686 5.28 0.00887 10.6 0.00738 15.8 2.72e-4 1.92 0.00222 3.85 0.0061 5.77 0.0116 6.03-0.0221 12.1-0.119 18.1-0.0198 1.37-0.0198 1.37-0.04 2.78-0.0504 2.76-0.131 5.52-0.22 8.28-0.0141 0.84-0.0282 1.68-0.0428 2.55-0.236 5.78-0.236 5.78-2.56 8.86-2.31 1.65-4.47 2.58-7.14 3.53-1.61 0.798-3.21 1.61-4.8 2.42-1.69 0.782-3.38 1.56-5.07 2.33-7.34 3.42-14.6 6.97-21.8 10.8-1.2 0.632-1.2 0.632-2.42 1.28-3.09 1.64-6.04 3.28-8.95 5.22 0.735 3.37 0.735 3.37 4.44 4.76 1.52 0.652 3.04 1.29 4.56 1.93 1.66 0.715 3.33 1.43 4.99 2.15 0.844 0.362 1.69 0.724 2.56 1.1 3.58 1.56 7.11 3.21 10.6 4.88 0.689 0.326 1.38 0.652 2.09 0.989 2.24 1.06 4.48 2.13 6.72 3.2 1.25 0.593 1.25 0.593 2.52 1.2 9.15 4.36 18.3 8.74 27.4 13.2 2.42 1.17 4.84 2.34 7.25 3.52 0.607 0.294 1.21 0.588 1.84 0.891 9.09 4.4 18.2 8.69 27.4 12.9 11.2 5.14 22.2 10.5 33.1 16.1 1.72 0.862 3.45 1.69 5.19 2.5 0.9 0.423 1.8 0.846 2.73 1.28 0.816 0.373 1.63 0.745 2.47 1.13 2.34 1.51 3.04 2.74 4.04 5.31l-21.8 10.9c-1.01 0.505-2.02 1.01-3.06 1.53-2.07 1.03-4.14 2.07-6.22 3.1-4.58 2.28-9.15 4.57-13.7 7-0.712 0.376-1.42 0.753-2.16 1.14-1.28 0.677-2.55 1.37-3.8 2.08-5.15 2.71-10.6 3.31-16.2 1.66-1.92-0.814-3.75-1.72-5.59-2.69-1.03-0.513-1.03-0.513-2.08-1.04-2.23-1.11-4.46-2.25-6.68-3.39-2.36-1.18-4.72-2.36-7.08-3.53-1.59-0.792-3.18-1.59-4.77-2.38-7.01-3.51-14.1-6.82-21.2-10.1-10-4.62-20-9.37-29.9-14.2-9.12-4.43-18.3-8.75-27.5-13-4.4-2.04-8.79-4.08-13.2-6.12-1.36-0.631-1.36-0.631-2.75-1.27-2.32-1.08-4.63-2.18-6.93-3.29-0.648-0.298-1.3-0.597-1.96-0.904-4.15-2.03-4.15-2.03-5.24-4.75-0.0348-0.589-0.0696-1.18-0.105-1.79 0.965-0.692 0.965-0.692 1.95-1.4 10.1-7.3 20-14.9 29.7-22.7 2.4-1.93 4.81-3.85 7.23-5.76 0.699-0.554 1.4-1.11 2.12-1.68 1.94-1.4 3.86-2.4 6.01-3.45 0.0305-3.65 0.0473-7.29 0.0625-10.9 0.0126-1.47 0.0126-1.47 0.0254-2.98 0.0232-7.55-0.246-15.1-0.584-22.6-0.592-13.7-0.66-27.3-0.632-41 0.00364-2.06 0.00521-4.12 0.00626-6.18 0.0159-25.3 0.322-50.6 0.734-75.9 0.0604-3.71 0.12-7.43 0.178-11.1 0.0112-0.713 0.0223-1.43 0.0338-2.16 0.138-8.99 0.203-18 0.138-27-0.0059-0.928-0.0118-1.86-0.0179-2.81-0.0293-4.07-0.0764-8.13-0.156-12.2-0.0153-1.34-0.0303-2.69-0.0449-4.03-0.0221-1.12-0.0442-2.24-0.0669-3.39 0.325-2.69 0.325-2.69 1.52-4.4 2.24-1.59 4.52-2.75 7.01-3.92 1.04-0.491 2.07-0.982 3.14-1.49 1.1-0.516 2.21-1.03 3.35-1.56 2.28-1.08 4.55-2.16 6.83-3.23 1.11-0.525 2.22-1.05 3.37-1.59 4.04-1.93 8.06-3.91 12.1-5.92 0.628-0.316 1.26-0.632 1.9-0.958 1.72-0.867 3.44-1.74 5.16-2.6 2-1 4-2 6-3 0.784-0.392 1.57-0.784 2.38-1.19 0.536-0.268 1.07-0.536 1.62-0.812-2.75-2.98-5.22-4.84-8.88-6.56-0.973-0.462-1.95-0.925-2.95-1.4-1.57-0.732-1.57-0.732-3.18-1.48-1.09-0.514-2.17-1.03-3.29-1.56-6.16-2.9-12.3-5.76-18.5-8.61-0.64-0.295-1.28-0.591-1.94-0.895-3.13-1.44-6.25-2.88-9.39-4.31-1.13-0.519-2.26-1.04-3.42-1.57-1-0.458-2.01-0.916-3.04-1.39-2.4-1.23-2.4-1.23-4.4-3.23 0.29-4.96 2.93-9.41 5.06-13.8 0.4-0.834 0.801-1.67 1.21-2.53 3.52-7.31 7.13-14.6 10.8-21.8 0.678-1.35 1.35-2.7 2.01-4.05 0.358-0.725 0.716-1.45 1.08-2.2 0.326-0.665 0.653-1.33 0.989-2.01 0.843-1.59 0.843-1.59 1.84-2.59z" fill="#2FB7FA"/>
<path transform="translate(1017,720)" d="m0 0c2.06 0.438 2.06 0.438 4 1-0.0116 1.09-0.0232 2.17-0.0352 3.29-0.00939 1.45-0.0185 2.89-0.0273 4.34-0.0126 1.07-0.0126 1.07-0.0254 2.16-0.00483 1.05-0.00483 1.05-0.00977 2.13-0.00786 0.958-0.00786 0.958-0.0159 1.94 0.0726 2.26 0.0726 2.26 0.613 4.86 0.523 3.44 0.627 6.67 0.628 10.1 0.00234 0.997 0.00234 0.997 0.00473 2.01 0.00397 2.21 8.36e-4 4.43-0.00232 6.64 0.00136 1.59 0.00314 3.19 0.00531 4.78 0.00456 4.33 0.00279 8.65-3.79e-4 13-0.00254 4.55-1.81e-4 9.09 0.00139 13.6 0.00182 7.65-5.77e-4 15.3-0.00534 22.9-0.00542 8.79-0.0037 17.6 0.00183 26.4 0.00457 7.58 0.00516 15.2 0.00256 22.7-0.00155 4.51-0.00181 9.03 0.00154 13.5 0.0199 32.2 0.0199 32.2-0.398 44.6-0.014 0.777-0.0281 1.55-0.0426 2.35-0.155 3.37-0.462 5.23-2.56 7.93-2.31 1.72-4.43 2.63-7.14 3.6-1.61 0.798-3.21 1.61-4.8 2.42-1.69 0.782-3.38 1.56-5.07 2.33-7.34 3.42-14.6 6.97-21.8 10.8-1.2 0.632-1.2 0.632-2.42 1.28-3.09 1.64-6.04 3.28-8.95 5.22 0.735 3.37 0.735 3.37 4.44 4.76 1.52 0.652 3.04 1.29 4.56 1.93 1.66 0.715 3.33 1.43 4.99 2.15 1.27 0.543 1.27 0.543 2.56 1.1 3.58 1.56 7.11 3.21 10.6 4.88 0.689 0.326 1.38 0.652 2.09 0.989 2.24 1.06 4.48 2.13 6.72 3.2 1.25 0.593 1.25 0.593 2.52 1.2 9.15 4.36 18.3 8.74 27.4 13.2 2.42 1.17 4.84 2.34 7.25 3.52 0.607 0.294 1.21 0.588 1.84 0.891 9.09 4.4 18.2 8.69 27.4 12.9 11.2 5.14 22.2 10.5 33.1 16.1 1.72 0.862 3.45 1.69 5.19 2.5 0.9 0.423 1.8 0.846 2.73 1.28 0.816 0.373 1.63 0.745 2.47 1.13 2.34 1.51 3.04 2.74 4.04 5.31l-21.8 10.9c-1.01 0.505-2.02 1.01-3.06 1.53-2.07 1.03-4.14 2.07-6.22 3.1-4.58 2.28-9.15 4.57-13.7 7-0.712 0.376-1.42 0.753-2.16 1.14-1.28 0.677-2.55 1.37-3.8 2.08-5.15 2.71-10.6 3.31-16.2 1.66-1.92-0.814-3.75-1.72-5.59-2.69-1.03-0.513-1.03-0.513-2.08-1.04-2.23-1.11-4.46-2.25-6.68-3.39-2.36-1.18-4.72-2.36-7.08-3.53-1.59-0.792-3.18-1.59-4.77-2.38-7.01-3.51-14.1-6.82-21.2-10.1-10-4.62-20-9.37-29.9-14.2-9.12-4.43-18.3-8.75-27.5-13-4.4-2.04-8.79-4.08-13.2-6.12-1.36-0.631-1.36-0.631-2.75-1.27-2.32-1.08-4.63-2.18-6.93-3.29-0.648-0.298-1.3-0.597-1.96-0.904-4.15-2.03-4.15-2.03-5.24-4.75-0.0348-0.589-0.0696-1.18-0.105-1.79 0.965-0.692 0.965-0.692 1.95-1.4 10.1-7.3 20-14.9 29.7-22.7 2.4-1.93 4.81-3.85 7.23-5.76 1.05-0.831 1.05-0.831 2.12-1.68 1.94-1.4 3.86-2.4 6.01-3.45 0.0305-3.65 0.0473-7.29 0.0625-10.9 0.0126-1.47 0.0126-1.47 0.0254-2.98 0.0232-7.55-0.246-15.1-0.584-22.6-0.596-13.8-0.661-27.5-0.633-41.3 0.00404-2.06 0.00652-4.11 0.00867-6.17 0.0266-22.2 0.192-44.4 0.468-66.6 0.0271-2.27 0.0507-4.55 0.0734-6.82 0.0362-3.57 0.0824-7.14 0.137-10.7 0.0273-1.94 0.0453-3.88 0.063-5.82 0.0199-1.15 0.0397-2.31 0.0602-3.5 0.0133-1.01 0.0266-2.01 0.0404-3.05 0.278-2.5 0.278-2.5 2.28-5.5 0.33 0.66 0.66 1.32 1 2 0.99-0.33 1.98-0.66 3-1v4h2c0.103-1.28 0.206-2.56 0.312-3.88 0.176-2.18 0.176-2.18 0.688-4.12 0.99-0.66 1.98-1.32 3-2-0.186-0.784-0.371-1.57-0.562-2.38-0.438-2.62-0.438-2.62 0.562-4.62 2.56-0.625 2.56-0.625 5-1 0.124-1.07 0.247-2.14 0.375-3.25 0.545-3.27 1.2-4.9 2.62-7.75 0.186-1.76 0.186-1.76 0.375-3.56 0.625-3.44 0.625-3.44 2.44-5.25 2.05-1.11 4.08-2.2 6.19-3.19 2.24-0.873 2.24-0.873 3.25-3.44 2.21-3.23 4.03-3.65 7.75-4.56l-3-3c2.97 0.495 2.97 0.495 6 1 0.66-0.99 1.32-1.98 2-3 2.32-0.407 4.66-0.744 7-1l1-1z" fill="#2FB7FA"/>
<path transform="translate(982,624)" d="m0 0c4.02 0.492 7.23 1.92 10.8 3.7 1.15 0.562 2.3 1.12 3.48 1.7 0.608 0.3 1.22 0.601 1.84 0.91 3.25 1.6 6.5 3.19 9.75 4.77 1 0.489 1 0.489 2.03 0.988 6.89 3.35 13.8 6.59 20.8 9.8 1.77 0.816 1.77 0.816 3.57 1.65 2.24 1.03 4.48 2.07 6.72 3.1 4.48 2.08 8.95 4.18 13.4 6.3 4.16 1.96 8.32 3.9 12.5 5.82 15.4 7.08 30.6 14.4 45.8 21.8 10 4.91 20.1 9.72 30.2 14.4v2h-7c-0.33 1.32-0.66 2.64-1 4 1.32-0.33 2.64-0.66 4-1v3c-1.65-0.33-3.3-0.66-5-1v-2h-2v5c-6.62 2.12-6.62 2.12-10 1-0.557-0.825-1.11-1.65-1.69-2.5-3.27-3.54-5.6-3.11-10.3-3.5-0.33-0.66-0.66-1.32-1-2h10c-2.97-0.495-2.97-0.495-6-1 1.32-0.66 2.64-1.32 4-2-2.62-1.75-4.04-2.39-7-3 0.33-0.66 0.66-1.32 1-2-1.89-0.278-1.89-0.278-3.81-0.562-0.708-0.104-1.42-0.209-2.14-0.316-2.25-0.26-2.25-0.26-5.04 0.879 0.33 0.99 0.66 1.98 1 3-2.97-0.495-2.97-0.495-6-1 0.846 0.743 1.69 1.49 2.56 2.25 1.21 1.36 1.21 1.36 2.44 2.75-0.188 2.31-0.188 2.31-1 4-2.97 0.495-2.97 0.495-6 1-0.33 2.31-0.66 4.62-1 7-2-3-2-3-1.62-5.69 0.206-0.763 0.412-1.53 0.625-2.31l-2-1c2-2 2-2 4-3v-3c-1.64-0.217-1.64-0.217-3.31-0.438-5.05-0.77-7.33-1.74-10.7-5.56v-2c-1.56-0.34-3.12-0.671-4.69-1l-2.64-0.562c-2.61-0.427-5.03-0.514-7.68-0.438 0.33-0.99 0.66-1.98 1-3 1.48 0.495 1.48 0.495 3 1 0.33-1.32 0.66-2.64 1-4h-12v3c1.48 0.495 1.48 0.495 3 1-0.66 1.65-1.32 3.3-2 5h7v2c2.64 0.33 5.28 0.66 8 1v7c-1.65-0.33-3.3-0.66-5-1 0.33 0.99 0.66 1.98 1 3 2.02 0.733 2.02 0.733 4 1v2c5.22 2.66 8.08 3.33 14 2v-2c-1.48-0.495-1.48-0.495-3-1 0.99-0.33 1.98-0.66 3-1 2.33 3.49 2 4.93 2 9-0.99-0.33-1.98-0.66-3-1v2c1.05 0.0735 1.05 0.0735 2.12 0.148 0.91 0.0748 1.82 0.15 2.76 0.227 0.905 0.0696 1.81 0.139 2.74 0.211 2.38 0.414 2.38 0.414 4.38 2.41l4-4c-0.33 1.32-0.66 2.64-1 4h2v-6c1.32-0.33 2.64-0.66 4-1 2.43 7.43 2.43 7.43 1 11-0.99-1.65-1.98-3.3-3-5 0.54 3.48 0.54 3.48 2 7 3.36 1.76 6.59 2.09 10.3 2.5 1.22 0.165 2.43 0.33 3.69 0.5 0.33 0.66 0.66 1.32 1 2h-11v2c0.568-0.0232 1.14-0.0464 1.72-0.0703 5.2-0.122 9.35 0.393 14.3 2.07 0.33-1.32 0.66-2.64 1-4 5.11-0.264 5.11-0.264 8 1 1.87 2.71 3.18 5.41 4.48 8.43 1.84 3.11 3.15 3.5 6.52 4.57 2 2 2 2 2.2 4.82-0.0232 1.09-0.0464 2.18-0.0703 3.3-0.018 1.1-0.0361 2.19-0.0547 3.32-0.0232 0.843-0.0464 1.69-0.0703 2.55h-4c-0.33 2.64-0.66 5.28-1 8-0.99 0.33-1.98 0.66-3 1-0.66 0.99-1.32 1.98-2 3h-2c-1.18 10.6-2.1 21.3-2 32h-2c0.256 2.34 0.593 4.68 1 7l2 1v6c-4.75 1.12-4.75 1.12-7 0-0.414-2.29-0.414-2.29-0.625-5.06-0.112-1.38-0.112-1.38-0.227-2.79-0.049-0.71-0.098-1.42-0.148-2.15l-2 1c-0.658 3.03-0.658 3.03-1 6h-1c-1.08-16.8-1.08-16.8-1-25.1 0.0463-7.07-0.134-14.1-0.375-21.2-0.0464-1.66-0.0464-1.66-0.0938-3.36-0.058-1.56-0.058-1.56-0.117-3.16-0.0314-0.936-0.0628-1.87-0.0952-2.84-0.174-2.66-0.174-2.66-2.32-5.4-2.11-1.23-4.18-2.32-6.38-3.38-1.03-0.504-1.03-0.504-2.08-1.02-16.6-8.07-33.5-15.7-50.3-23.3-5.51-2.5-10.9-5.13-16.3-7.88-3.77-1.85-7.6-3.57-11.4-5.26-0.684-0.303-1.37-0.605-2.07-0.917-3.15-1.37-6.08-2.43-9.43-3.27v36c-2.19-4.37-2.23-7.52-2.12-12.2 0.00902-0.745 0.018-1.49 0.0273-2.26 0.0235-1.83 0.0593-3.66 0.0977-5.49-1.79 0.255-3.59 0.53-5.38 0.812-0.998 0.151-2 0.302-3.02 0.457-2.93 0.518-2.93 0.518-4.6 3.73h-3c0.33 0.66 0.66 1.32 1 2-0.554 0.17-1.11 0.34-1.68 0.516-4.47 1.31-4.47 1.31-7.57 4.48-0.247 0.66-0.495 1.32-0.75 2-2.57 2.32-4.64 3.3-8 4-1.47 1.47-1.47 2.97-1.88 5-2.27 10.4-2.27 10.4-4.12 14-2.69 1.56-2.69 1.56-5 2v2.31 5.69c-0.99 0.99-0.99 0.99-2 2-0.714 1.98-1.39 3.98-2 6h-2v-4h-2v5c-0.289-0.598-0.577-1.2-0.875-1.81-1.17-2.38-1.17-2.38-3.12-5.19-0.208-2.87-0.304-5.63-0.301-8.5-0.00429-0.832-0.00857-1.66-0.013-2.52-0.00574-1.76-0.00625-3.52-0.00191-5.28 0.00316-2.69-0.0203-5.39-0.0457-8.08-0.00227-1.71-0.00298-3.42-0.00195-5.12-0.00921-0.806-0.0184-1.61-0.0279-2.44 0.0468-5.64 0.0468-5.64 1.77-7.71 2.12-1.76 4.33-2.81 6.82-3.98 1.04-0.491 2.07-0.982 3.14-1.49 1.1-0.516 2.21-1.03 3.35-1.56 2.28-1.08 4.55-2.16 6.83-3.23 1.11-0.525 2.22-1.05 3.37-1.59 4.04-1.93 8.06-3.91 12.1-5.92 0.628-0.316 1.26-0.632 1.9-0.958 1.72-0.867 3.44-1.74 5.16-2.6 2-1 4-2 6-3 0.784-0.392 1.57-0.784 2.38-1.19 0.536-0.268 1.07-0.536 1.62-0.812-2.75-2.98-5.22-4.84-8.88-6.56-0.973-0.462-1.95-0.925-2.95-1.4-1.05-0.488-2.1-0.975-3.18-1.48-1.09-0.514-2.17-1.03-3.29-1.56-6.16-2.9-12.3-5.76-18.5-8.61-0.96-0.443-0.96-0.443-1.94-0.895-3.13-1.44-6.25-2.88-9.39-4.31-1.13-0.519-2.26-1.04-3.42-1.57-1-0.458-2.01-0.916-3.04-1.39-2.4-1.23-2.4-1.23-4.4-3.23 0.29-4.96 2.93-9.41 5.06-13.8 0.4-0.834 0.801-1.67 1.21-2.53 3.52-7.31 7.13-14.6 10.8-21.8 0.678-1.35 1.35-2.7 2.01-4.05 0.537-1.09 0.537-1.09 1.08-2.2 0.49-0.997 0.49-0.997 0.989-2.01 0.843-1.59 0.843-1.59 1.84-2.59z" fill="#2DBDF9"/>
<path transform="translate(496 612)" d="m0 0c0.721-0.0122 1.44-0.0245 2.18-0.0371 3.81-0.0105 6.72 0.0888 9.94 2.22l-2 1c2.95 0.84 5.62 1.14 8.68 1.21 1.36 0.0398 1.36 0.0398 2.74 0.0803 0.956 0.0276 1.91 0.0553 2.9 0.0837 9.19 0.327 17.8 1.41 26.7 3.62 0.495 1.49 0.495 1.49 1 3-3.44 2.3-5.29 2.4-9.38 2.69-1.12 0.0864-2.24 0.173-3.4 0.262-2.94 0.0463-5.38-0.241-8.23-0.949-0.33 0.66-0.66 1.32-1 2h-4c-0.33 0.66-0.66 1.32-1 2-2.31-0.33-4.62-0.66-7-1 0.33 0.99 0.66 1.98 1 3-0.33 0.99-0.66 1.98-1 3 1.85 0.692 1.85 0.692 4 1 0.99-0.66 1.98-1.32 3-2v3h2c-0.186-0.804-0.371-1.61-0.562-2.44-0.144-0.846-0.289-1.69-0.438-2.56 1-1 1-1 3.56-1.06 1.21 0.0309 1.21 0.0309 2.44 0.0625-0.495 1.49-0.495 1.49-1 3-0.66-0.33-1.32-0.66-2-1v2h2c0.495 1.49 0.495 1.49 1 3h-3c-0.33 2.31-0.66 4.62-1 7h-7v9c-1.49 0.495-1.49 0.495-3 1v13h-5c-0.33 2.97-0.66 5.94-1 9h-2c0.206 0.577 0.413 1.15 0.625 1.75 0.375 2.25 0.375 2.25-0.594 3.88-1.51 3.48-1.24 6.91-1.16 10.6 0.00902 0.745 0.018 1.49 0.0273 2.26 0.0235 1.83 0.0593 3.66 0.0977 5.49 0.66 0.33 1.32 0.66 2 1h-2v9c1.49 0.495 1.49 0.495 3 1 1.02 4.63 0.838 8.34 0 13-1.49-0.99-1.49-0.99-3-2 0.0619 0.639 0.124 1.28 0.188 1.94-0.176 2.88-0.694 4.65-1.69 7.31-1.46 4.06-1.69 7.33-1.31 11.6-0.188 2.14-0.188 2.14-1.67 4.28-2.25 4.25-1.87 8.2-1.77 12.9 0.00516 0.898 0.0103 1.8 0.0156 2.72 0.0469 3.94 0.245 7.4 1.23 11.2 0.269 4.84-0.239 8.49-2 13h-2c0.33 1.98 0.66 3.96 1 6h1c0.0269 1.65 0.0463 3.29 0.0625 4.94 0.0116 0.917 0.0232 1.83 0.0352 2.78-0.0977 2.29-0.0977 2.29-1.1 3.29-0.815 2.85-1.03 4.83-0.532 7.77 0.54 3.28 0.661 6.33 0.665 9.65 0.00129 1.19 0.00258 2.38 0.00391 3.61-0.00387 1.23-0.00773 2.46-0.0117 3.72 0.00387 1.24 0.00773 2.49 0.0117 3.77-0.00193 1.78-0.00193 1.78-0.00391 3.59-0.00113 1.08-0.00226 2.16-0.00342 3.28-0.129 2.61-0.129 2.61-1.13 4.61h-2v6h2c0.495-0.99 0.495-0.99 1-2v3h-3c0.351 0.681 0.701 1.36 1.06 2.06 1.16 3.65 0.666 6.22-0.0625 9.94 0.33-0.33 0.66-0.66 1-1h1c1.27 9.86 2.06 20.2 0 30-0.33 0.33-0.66 0.66-1 1 0.409 2.05 0.409 2.05 1 4h-1c-0.0271 1.6-0.0464 3.21-0.0625 4.81-0.0116 0.893-0.0232 1.79-0.0352 2.71-0.0124 2.61-0.0124 2.61 1.1 5.48 0.0674 1.56 0.0851 3.13 0.0625 4.69-0.00902 0.808-0.018 1.62-0.0273 2.45-0.0116 0.615-0.0232 1.23-0.0352 1.86h-2c-0.0273 1.73-0.0465 3.46-0.0625 5.19-0.0116 0.963-0.0232 1.93-0.0352 2.92 0.0928 2.75 0.477 5.22 1.1 7.89h1c1.25 6.52 1.25 6.52 0.0312 8.81-1.43 3.04-1.22 5.6-1.16 8.94 0.0271 1.76 0.0271 1.76 0.0547 3.55 0.0232 0.892 0.0464 1.78 0.0703 2.7 0.66 0.33 1.32 0.66 2 1-0.0116 0.953-0.0232 1.91-0.0352 2.89-0.00902 1.25-0.018 2.51-0.0273 3.8-0.0116 1.24-0.0232 2.48-0.0352 3.76-0.00522 3.45-0.00522 3.45 0.664 6.38 0.434 2.17 0.434 2.17-0.566 4.17-0.0974 2.31-0.13 4.62-0.125 6.94-0.00258 1.25-0.00516 2.49-0.00781 3.78-0.0192 3.29-0.0192 3.29 1.13 6.29 1.3-0.124 2.6-0.247 3.94-0.375 0.731-0.0696 1.46-0.139 2.21-0.211 0.61-0.137 1.22-0.273 1.85-0.414 0.33-0.66 0.66-1.32 1-2 1.65 0.33 3.3 0.66 5 1v5c1.98-0.33 3.96-0.66 6-1-0.206-0.743-0.413-1.48-0.625-2.25-0.419-3.07 0.00551-4.18 1.62-6.75 0.33 1.65 0.66 3.3 1 5 2.76-0.523 5.33-1.11 8-2v-3c1.03-0.227 2.06-0.454 3.12-0.688 4.13-1.15 6.62-3.55 9.88-6.31 3.37-1.31 3.37-1.31 6-2-0.33-1.65-0.66-3.3-1-5h2v-7c1.22-0.454 2.43-0.908 3.69-1.38 0.727-0.28 1.45-0.559 2.2-0.848 2.11-0.777 2.11-0.777 5.05-1.59 0.681-0.392 1.36-0.784 2.06-1.19 0.898-3.05 0.898-3.05 1-6h-3c-0.0291-3.08-0.0468-6.17-0.0625-9.25-0.00838-0.873-0.0168-1.75-0.0254-2.64-0.00322-0.844-0.00645-1.69-0.00977-2.56-0.00524-0.775-0.0105-1.55-0.0159-2.35 0.113-2.19 0.508-4.09 1.11-6.2h4c0.33-6.6 0.66-13.2 1-20 1.65-0.33 3.3-0.66 5-1 1.43-10.9 1.15-21.9 1.13-32.9 6.75e-4 -2.14 0.00165-4.27 0.0029-6.41 0.00147-4.46-6.5e-4 -8.92-0.00534-13.4-0.0057-5.69-0.00241-11.4 0.00357-17.1 0.00363-4.4 0.00246-8.81-1.28e-4 -13.2-6.64e-4 -2.1 1.39e-4 -4.2 0.00248-6.3 0.00256-2.94-0.00136-5.88-0.0069-8.82 0.00304-1.28 0.00304-1.28 0.00613-2.59-0.0201-5.81-0.464-11.5-1.14-17.3-0.049 0.782-0.098 1.56-0.148 2.37-0.0748 1.01-0.15 2.02-0.227 3.07-0.0696 1.01-0.139 2.02-0.211 3.06-0.137 0.826-0.273 1.65-0.414 2.5-0.66 0.33-1.32 0.66-2 1-0.722 1.64-1.39 3.31-2 5h-1c0.00786-1.46 0.00786-1.46 0.0159-2.95 0.0182-3.62 0.0296-7.25 0.0391-10.9 0.00502-1.57 0.0118-3.13 0.0205-4.7 0.0122-2.26 0.0178-4.51 0.0222-6.77 0.00516-0.696 0.0103-1.39 0.0156-2.11 4.2e-4 -3.67-0.296-7.02-1.11-10.6-0.0425-1.73-0.0409-3.46 0-5.19 0.058-5.33-0.357-10.5-1-15.8-0.33 1.65-0.66 3.3-1 5h-1c-0.257-3.19-0.476-6.37-0.688-9.56-0.0728-0.895-0.146-1.79-0.221-2.71-0.362-5.82 0.153-9.56 2.91-14.7 0.33 0.99 0.66 1.98 1 3h2c-0.0954-0.615-0.191-1.23-0.289-1.86-0.111-0.808-0.222-1.62-0.336-2.45-0.116-0.801-0.232-1.6-0.352-2.43-0.0234-2.26-0.0234-2.26 1.98-5.26-0.33-0.99-0.66-1.98-1-3h4c0.495 7.42 0.495 7.42 1 15l3-3c0.251 31.5 0.446 62.9 0.562 94.4 0.0138 3.72 0.028 7.43 0.0425 11.1 0.00289 0.74 0.00577 1.48 0.00874 2.24 0.0479 12 0.135 24 0.236 35.9 0.103 12.3 0.164 24.6 0.186 36.9 0.0151 7.58 0.0627 15.2 0.152 22.8 0.065 5.82 0.0719 11.6 0.0571 17.4 0.00303 2.39 0.0249 4.77 0.0671 7.16 0.303 18 0.303 18-3.66 22.9-2.86 1.86-5.45 2.99-8.65 4.11-1.8 1.03-3.58 2.08-5.34 3.18-1.86 1.09-3.73 2.17-5.6 3.25-1.01 0.591-2.03 1.18-3.08 1.79-5.76 3.34-11.5 6.66-17.3 9.96-0.614 0.35-1.23 0.7-1.86 1.06-2.97 1.69-5.95 3.39-8.93 5.07-8.82 5.01-17.7 10.1-26 15.9-3.35 2.13-5.92 2.58-9.86 2.81-1.86-1.86-1.13-4.98-1.13-7.47-0.00175-0.687-0.00351-1.37-0.00531-2.08-0.0047-2.33-0.00218-4.66 2.34e-4 -7-0.00187-1.68-0.00417-3.35-0.00687-5.03-0.00615-4.63-0.00598-9.26-0.00481-13.9 2.03e-4 -4.99-0.00531-9.97-0.0101-15-0.00833-9.78-0.0111-19.6-0.0116-29.3-4.74e-4 -7.95-0.00253-15.9-0.0057-23.9-0.00881-22.5-0.0134-45.1-0.0127-67.6 4e-5 -1.22 7.99e-5 -2.43 1.21e-4 -3.68 4.09e-5 -1.22 8.18e-5 -2.43 1.24e-4 -3.69 4.06e-4 -19.7-0.00916-39.4-0.0233-59.2-0.0144-20.2-0.0213-40.5-0.0204-60.7 3.32e-4 -11.4-0.00242-22.7-0.0132-34.1-0.0091-9.68-0.0113-19.4-0.00449-29 0.00327-4.94 0.00331-9.88-0.00535-14.8-0.00785-4.52-0.00645-9.05 0.00228-13.6 0.00154-1.63-2.91e-4 -3.27-0.00586-4.9-0.0503-15.8-0.0503-15.8 2.26-23.2 3.13-1.56 6.44-1.18 9.88-1.19z" fill="#2DBDFA"/>
<path transform="translate(953,964)" d="m0 0c0.66 0.33 1.32 0.66 2 1 0.99-0.33 1.98-0.66 3-1 2-0.0392 4-0.0444 6 0 1.31 2.62 0.896 4.23 0.562 7.12-0.102 0.91-0.204 1.82-0.309 2.76-0.0838 0.699-0.168 1.4-0.254 2.12-0.969 0.247-1.94 0.495-2.94 0.75-3.11 0.871-3.11 0.871-3.88 2.94-0.0928 1.14-0.0928 1.14-0.188 2.31-0.268 1.11-0.536 2.23-0.812 3.38-0.477 3.69-0.477 3.69 1.38 6.94 2.71 2.99 4.55 3.8 8.44 4.69v11c1.65 0.33 3.3 0.66 5 1 1.93 1.59 2.88 2.77 4 5 1.64 0.736 3.31 1.39 5 2 2.5 0.976 5 1.96 7.5 2.94 0.651 0.252 1.3 0.504 1.97 0.764 3.75 1.48 7.08 3.23 10.5 5.3 2.67 0.335 2.67 0.335 5 0 0.33-0.33 0.66-0.66 1-1 4.75-0.339 8.47 0.671 13 2 2.66 0.426 5.32 0.717 8 1-0.206 0.784-0.412 1.57-0.625 2.38-0.124 0.866-0.247 1.73-0.375 2.62 1.83 2.27 1.83 2.27 4.53 2.16 0.98-0.0322 1.96-0.0645 2.97-0.0977 5.3-0.161 5.3-0.161 7.5 0.938v2h9c0.33-0.99 0.66-1.98 1-3 1.32 0.33 2.64 0.66 4 1-0.33 0.99-0.66 1.98-1 3h8c0.224-2.93 0.224-2.93-1-5h2c0.33-0.66 0.66-1.32 1-2h2c2.02-1.3 4.03-2.63 6-4-0.33-0.99-0.66-1.98-1-3-2.02-0.733-2.02-0.733-4-1-0.33-1.32-0.66-2.64-1-4v4h-3v-4c-0.99-0.66-1.98-1.32-3-2 0.99-0.33 1.98-0.66 3-1v-3c-0.99 0.33-1.98 0.66-3 1-0.33 1.32-0.66 2.64-1 4h-9c-0.33 0.66-0.66 1.32-1 2-3.88-1.88-3.88-1.88-5-3-0.0406-1.67-0.0427-3.33 0-5h4c-1.09-3.25-1.09-3.25-3-6-0.0406-1.67-0.0427-3.33 0-5 3.93 0 4.55 0.0751 7.56 2.06 1.13 0.639 2.27 1.28 3.44 1.94 0.99-0.33 1.98-0.66 3-1-2.47-1.49-2.47-1.49-5-3 0.33-0.66 0.66-1.32 1-2 9.87 4.63 19.7 9.28 29.6 13.9 2.72 1.28 5.45 2.57 8.17 3.85 3.16 1.49 6.32 2.98 9.48 4.48 0.913 0.428 1.83 0.857 2.77 1.3 9.24 4.39 9.24 4.39 13 7.45v4c-0.795 0.382-1.59 0.764-2.41 1.16-17.9 8.6-17.9 8.6-35.8 17.4-0.619 0.308-1.24 0.616-1.88 0.934-2.63 1.32-5.23 2.66-7.8 4.09-0.851 0.465-1.7 0.931-2.58 1.41-0.679 0.392-1.36 0.784-2.06 1.19-5.91 1.92-11.6 1.25-17.1-1.45-0.63-0.331-1.26-0.661-1.91-1-0.688-0.342-1.38-0.684-2.08-1.04-2.23-1.11-4.46-2.25-6.68-3.39-2.36-1.18-4.72-2.36-7.08-3.53-1.59-0.792-3.18-1.59-4.77-2.38-7.01-3.51-14.1-6.82-21.2-10.1-10-4.62-20-9.37-29.9-14.2-9.12-4.43-18.3-8.75-27.5-13-4.4-2.04-8.79-4.08-13.2-6.12-0.908-0.421-1.82-0.841-2.75-1.27-2.32-1.08-4.63-2.18-6.93-3.29-0.971-0.447-0.971-0.447-1.96-0.904-4.15-2.03-4.15-2.03-5.24-4.75-0.0348-0.589-0.0696-1.18-0.105-1.79 0.643-0.461 1.29-0.923 1.95-1.4 17.8-12.4 17.8-12.4 34.1-26.6z" fill="#2DBDFA"/>
<path transform="translate(714,612)" d="m0 0c9.89 0.194 18.7 5.45 25.8 12.1 9.43 10.2 14.7 21.9 14.4 35.9-0.766 9.75-4.22 16.5-10.2 24.1-0.463 0.638-0.926 1.28-1.4 1.93-6.23 8.11-15.7 13.2-25.6 15.1-11.3 1.23-22.7 1.12-34.1 1.08-3.16-0.013-6.32-0.0193-9.48-0.0241-7.85-0.0132-15.7-0.0373-23.6-0.0614-31.7-0.192-31.7-0.192-63.5 0.448-1.09 0.0392-2.17 0.0785-3.29 0.119-4.4-0.198-4.4-0.198-8.13 1.44-0.157 1.49-0.251 2.98-0.316 4.47-0.0628 1.35-0.0628 1.35-0.127 2.72-0.0393 0.946-0.0786 1.89-0.119 2.87-0.0432 0.949-0.0864 1.9-0.131 2.88-0.106 2.35-0.208 4.71-0.307 7.06h-1c-0.288-3.16-0.523-6.33-0.75-9.5-0.122-1.33-0.122-1.33-0.246-2.69-0.373-5.64 0.152-9.28 3.11-14.1 1.12-1.8 1.12-1.8 0.884-4.67 3.48-2.14 6.21-2.21 10.2-2.12 1.08 0.018 2.16 0.0361 3.27 0.0547 0.82 0.0232 1.64 0.0464 2.48 0.0703 0.495-1.49 0.495-1.49 1-3h3v2c0.804 0.144 1.61 0.289 2.44 0.438 2.56 0.562 2.56 0.562 3.56 1.56 11.8 0.809 11.8 0.809 23-2 2.12 0.438 2.12 0.438 4 1 0.66-1.32 1.32-2.64 2-4h2v-2c0.678-0.049 1.36-0.098 2.05-0.148 5.78-0.464 11.3-1.23 16.9-2.55 2-0.305 2-0.305 4 0.695v2h7v-2h5c0.33 0.99 0.66 1.98 1 3 5.17-0.406 5.17-0.406 10-2 0.66 1.65 1.32 3.3 2 5 0.33-0.66 0.66-1.32 1-2 0.619 0.186 1.24 0.371 1.88 0.562 2.17 0.674 2.17 0.674 4.12-0.562v2c2.31 0.33 4.62 0.66 7 1 0.495-1.49 0.495-1.49 1-3h2v3c0.99-2.31 1.98-4.62 3-7 0.33 0.99 0.66 1.98 1 3h2c-0.33-0.99-0.66-1.98-1-3 0.804-0.268 1.61-0.536 2.44-0.812 0.846-0.392 1.69-0.784 2.56-1.19 0.33-0.99 0.66-1.98 1-3 1.61-0.217 1.61-0.217 3.25-0.438 1.86-0.278 1.86-0.278 3.75-0.562 0.722-0.103 1.44-0.206 2.19-0.312 2.54-0.964 3.94-2.76 5.81-4.69h2c-0.33-0.99-0.66-1.98-1-3 0.66-0.99 1.32-1.98 2-3 2.62-0.188 2.62-0.188 5 0v-2c-0.66-0.33-1.32-0.66-2-1h2c-0.168-0.548-0.335-1.1-0.508-1.66-0.565-2.68-0.481-5.04-0.367-7.78 0.0535-4.47-0.366-6.92-3.12-10.6-0.333-1.33-0.667-2.67-1-4-0.96-1.69-1.95-3.36-3-5 0.33-0.33 0.66-0.66 1-1-1.13-0.433-2.27-0.866-3.44-1.31-1.18-0.557-2.35-1.11-3.56-1.69-0.33-0.99-0.66-1.98-1-3-3.43-1.17-3.43-1.17-7-2-0.99-0.495-0.99-0.495-2-1-0.588 0.742-0.588 0.742-1.19 1.5-2.36 1.96-3.83 1.74-6.81 1.5 0.66-0.66 1.32-1.32 2-2-1.32-1.32-2.64-2.64-4-4 0.33-0.99 0.66-1.98 1-3 5.74-1.95 11-2.25 17-2l-2-4z" fill="#2DBDFA"/>
<path transform="translate(1022,655)" d="m0 0h2c1.35 2.71 1.07 5.01 1 8-2.97-0.495-2.97-0.495-6-1-0.33 2.64-0.66 5.28-1 8h2c0.33-0.99 0.66-1.98 1-3 0.66 0.33 1.32 0.66 2 1-0.33 0.99-0.66 1.98-1 3 0.99 0.99 1.98 1.98 3 3-0.33-0.99-0.66-1.98-1-3 0.278-2.34 0.605-4.68 1-7 3.31-1.1 5.25-0.927 8.69-0.562 1.49 0.153 1.49 0.153 3.01 0.309 0.759 0.0838 1.52 0.168 2.3 0.254 0.66-0.99 1.32-1.98 2-3 1.89-0.0338 3.79-0.0483 5.68 0.0449 2.53-0.049 4.53-0.621 6.95-1.33 6.33-1.31 10.2 0.855 15.7 3.84 2.04 1.04 4.08 2.08 6.12 3.12 1.06 0.549 2.13 1.1 3.22 1.66 5.48 2.77 11.1 5.29 16.7 7.84 16 7.37 31.8 15.1 47.6 22.8v2h-7c-0.33 1.32-0.66 2.64-1 4 1.32-0.33 2.64-0.66 4-1v3c-1.65-0.33-3.3-0.66-5-1v-2h-2v5c-6.62 2.12-6.62 2.12-10 1-0.557-0.825-1.11-1.65-1.69-2.5-3.27-3.54-5.6-3.11-10.3-3.5-0.33-0.66-0.66-1.32-1-2h10c-1.98-0.33-3.96-0.66-6-1l4-2c-2.62-1.75-4.04-2.39-7-3 0.495-0.99 0.495-0.99 1-2-1.89-0.278-1.89-0.278-3.81-0.562-1.06-0.157-1.06-0.157-2.14-0.316-2.25-0.26-2.25-0.26-5.04 0.879 0.33 0.99 0.66 1.98 1 3-1.98-0.33-3.96-0.66-6-1 1.27 1.11 1.27 1.11 2.56 2.25 0.804 0.908 1.61 1.82 2.44 2.75-0.188 2.31-0.188 2.31-1 4-1.98 0.33-3.96 0.66-6 1-0.33 2.31-0.66 4.62-1 7-2-3-2-3-1.62-5.69 0.206-0.763 0.412-1.53 0.625-2.31l-2-1c2-2 2-2 4-3v-3c-1.09-0.144-2.19-0.289-3.31-0.438-5.05-0.77-7.33-1.74-10.7-5.56v-2c-1.56-0.34-3.12-0.671-4.69-1-1.31-0.278-1.31-0.278-2.64-0.562-2.61-0.427-5.03-0.514-7.68-0.438 0.33-0.99 0.66-1.98 1-3 0.99 0.33 1.98 0.66 3 1v-4c-0.804-0.289-1.61-0.577-2.44-0.875-2.56-1.12-2.56-1.12-3.56-3.12h-3c-3-3.33-3-3.33-3-6h-3v4c0.66 0.33 1.32 0.66 2 1-0.312 1.94-0.312 1.94-1 4-0.99 0.33-1.98 0.66-3 1 1.32 0.33 2.64 0.66 4 1-0.33 0.66-0.66 1.32-1 2-2.29 0.414-2.29 0.414-5.06 0.625-0.919 0.0748-1.84 0.15-2.79 0.227-1.07 0.0735-1.07 0.0735-2.15 0.148v-6c-0.66-0.33-1.32-0.66-2-1-0.33 2.64-0.66 5.28-1 8-1.13 0.289-2.27 0.577-3.44 0.875-1.18 0.371-2.35 0.742-3.56 1.12-0.33 0.66-0.66 1.32-1 2-5.75-1.88-5.75-1.88-8-3v-8c0.99 0.33 1.98 0.66 3 1v-2c-0.784-0.289-1.57-0.577-2.38-0.875-2.62-1.12-2.62-1.12-4.62-3.12-2.07-0.643-2.07-0.643-4-1 0.99-0.99 1.98-1.98 3-3h-8c0.0206-0.804 0.0412-1.61 0.0625-2.44 0.234-2.5 0.234-2.5-1.06-3.56-0.141-2.67-0.0425-5.32 0-8 5.62-0.25 5.62-0.25 9 2 0.66-1.32 1.32-2.64 2-4z" fill="#2DBDFA"/>
<path transform="translate(1179,966)" d="m0 0h1c0.149 5.18 0.257 10.4 0.33 15.5 0.0301 1.76 0.071 3.52 0.123 5.28 0.073 2.53 0.107 5.07 0.133 7.6 0.031 0.784 0.0619 1.57 0.0938 2.37 0.00327 5.34 0.00327 5.34-1.93 7.79-3.61 3.11-7.75 4.98-12.1 6.73-5.73 2.4-11.3 4.95-16.9 7.75-0.662 0.333-1.32 0.666-2.01 1.01-3.09 1.56-6.15 3.15-9.2 4.77-1.04 0.548-2.09 1.1-3.16 1.66-1.35 0.727-1.35 0.727-2.73 1.47-3.07 1.19-5.39 1.29-8.65 1.03-1.93-1.93-1.42-5.43-1.56-8.06-0.0425-0.732-0.0849-1.46-0.129-2.22-0.54-10.6-0.396-21.1-0.309-31.7h3c0.66 4.29 1.32 8.58 2 13 0.66-1.98 1.32-3.96 2-6 0.638-1.35 1.29-2.69 2-4 3 1.69 3 1.69 6 4 0.125 2.56 0.125 2.56 0 5 1.67 1.92 1.67 1.92 4 3h4v2c1.61-0.283 3.21-0.577 4.81-0.875 0.893-0.162 1.79-0.325 2.71-0.492 2.71-0.545 2.71-0.545 5.48-2.63 1.2-2.55 1.2-2.55 2-5h2v-2l4-2v-6h3c0.144-0.784 0.289-1.57 0.438-2.38 0.562-2.62 0.562-2.62 1.56-4.62 4.75-0.125 4.75-0.125 7 1 0.495-6.43 0.495-6.43 1-13z" fill="#2DBDFA"/>
<path transform="translate(1022,655)" d="m0 0h2c1.35 2.71 1.07 5.01 1 8-2.97-0.495-2.97-0.495-6-1-0.33 2.64-0.66 5.28-1 8h2c0.33-0.99 0.66-1.98 1-3 0.66 0.33 1.32 0.66 2 1-0.33 0.99-0.66 1.98-1 3 0.99 0.99 1.98 1.98 3 3-0.33-0.99-0.66-1.98-1-3 0.278-2.34 0.605-4.68 1-7 3.31-1.1 5.25-0.927 8.69-0.562 1.49 0.153 1.49 0.153 3.01 0.309 0.759 0.0838 1.52 0.168 2.3 0.254 0.66-0.99 1.32-1.98 2-3 1.9-0.0339 3.8-0.0461 5.69 0.0586 2.54-0.0645 4.35-0.735 6.75-1.56 7.47-1.71 14.4 3.02 20.8 6.39 1.88 1.2 3.3 2.41 4.74 4.11v2h-2v2c-0.619 0.0412-1.24 0.0825-1.88 0.125-1.05 0.433-1.05 0.433-2.12 0.875-1.3 3-1.3 3-2 6-6.15-0.586-6.15-0.586-8-1-0.495-0.99-0.495-0.99-1-2h-3c-3-3.33-3-3.33-3-6h-3v4c0.66 0.33 1.32 0.66 2 1-0.312 1.94-0.312 1.94-1 4-0.99 0.33-1.98 0.66-3 1 1.32 0.33 2.64 0.66 4 1-0.33 0.66-0.66 1.32-1 2-2.29 0.414-2.29 0.414-5.06 0.625-0.919 0.0748-1.84 0.15-2.79 0.227-1.07 0.0735-1.07 0.0735-2.15 0.148v-6c-0.66-0.33-1.32-0.66-2-1-0.33 2.64-0.66 5.28-1 8-1.13 0.289-2.27 0.577-3.44 0.875-1.18 0.371-2.35 0.742-3.56 1.12-0.33 0.66-0.66 1.32-1 2-5.75-1.88-5.75-1.88-8-3v-8c0.99 0.33 1.98 0.66 3 1v-2c-0.784-0.289-1.57-0.577-2.38-0.875-2.62-1.12-2.62-1.12-4.62-3.12-2.07-0.643-2.07-0.643-4-1 0.99-0.99 1.98-1.98 3-3h-8c0.0206-0.804 0.0412-1.61 0.0625-2.44 0.234-2.5 0.234-2.5-1.06-3.56-0.141-2.67-0.0425-5.32 0-8 5.62-0.25 5.62-0.25 9 2 0.66-1.32 1.32-2.64 2-4z" fill="#2FB7FA"/>
<path transform="translate(1146,701)" d="m0 0c5.78 1.71 11.1 4.28 16.5 6.88 0.924 0.434 1.85 0.869 2.8 1.32 12.9 6.13 12.9 6.13 14.7 9.81 0.153 1.46 0.25 2.92 0.316 4.39 0.0421 0.922 0.0841 1.84 0.127 2.79 0.0392 1.01 0.0783 2.02 0.119 3.06 0.0417 1.05 0.0835 2.11 0.126 3.19 0.671 18.8 0.991 37.8-0.689 56.6h-1c-0.836-7.62-1.1-15.1-1-22.8 0.0808-6.2 0.0932-12.1-1-18.2-0.99 0.33-1.98 0.66-3 1-1.01-0.186-2.02-0.371-3.06-0.562-0.969-0.144-1.94-0.289-2.94-0.438-2.57 2.57-2.54 4.48-3 8h-7c-2-3-2-3-2-6h-2v-6c1.32-0.66 2.64-1.32 4-2-0.0206-1.26-0.0412-2.52-0.0625-3.81-0.0464-2.83 0.146-4.44 1.06-7.19-0.639-0.247-1.28-0.495-1.94-0.75-2.06-1.25-2.06-1.25-2.81-3.38-0.0825-0.619-0.165-1.24-0.25-1.88h2v-3c0.99-0.33 1.98-0.66 3-1 0.33-0.66 0.66-1.32 1-2-0.784-0.247-1.57-0.495-2.38-0.75-2.62-1.25-2.62-1.25-4.62-5.25h-11v-3c-0.66-0.66-1.32-1.32-2-2v-3c3-1 3-1 5.19-0.0625 0.598 0.351 1.2 0.701 1.81 1.06 0.33-0.66 0.66-1.32 1-2-0.66-0.33-1.32-0.66-2-1v-2z" fill="#2DBDFA"/>
<path transform="translate(1020,909)" d="m0 0h1c0.244 3.05 0.422 6.07 0.562 9.12 0.0754 0.856 0.151 1.71 0.229 2.59 0.0926 2.68 0.00743 4.72-0.791 7.28-2.61 2.76-5.62 4.33-9 6-0.793 0.407-1.59 0.814-2.4 1.23-2.47 1.22-4.96 2.38-7.47 3.52-7.34 3.42-14.6 6.97-21.8 10.8-0.799 0.421-1.6 0.842-2.42 1.28-3.09 1.64-6.04 3.28-8.95 5.22-2.69-0.375-2.69-0.375-5-1-0.0271-2.71-0.0469-5.42-0.0625-8.12-0.00838-0.761-0.0168-1.52-0.0254-2.3-0.0186-4.31 0.227-8.33 1.09-12.6 4.75-0.332 7.06 0.406 11 3 1.98 0.662 1.98 0.662 4 1 0.763 0.217 1.53 0.433 2.31 0.656 4.84 0.619 8.68-2.15 12.7-4.66 1.69-1.65 3.36-3.31 5-5 3.31-1.31 3.31-1.31 6-2-0.495-1.49-0.495-1.49-1-3h2v-2h2c-0.495-1.49-0.495-1.49-1-3 0.938-2.19 0.938-2.19 2-4 1.33 0.667 2.67 1.33 4 2v-3h5c0.33-0.99 0.66-1.98 1-3z" fill="#2DBDFA"/>
<path transform="translate(1011,639)" d="m0 0c6.32 0.243 10.6 2.11 16.2 5.04 5.98 3.12 12.2 5.78 18.4 8.53 1.38 0.622 1.38 0.622 2.79 1.26 0.83 0.37 1.66 0.741 2.51 1.12 2.17 1.05 2.17 1.05 5.17 3.05-0.495 1.49-0.495 1.49-1 3-0.915 0.0606-1.83 0.121-2.77 0.184-1.19 0.0838-2.38 0.168-3.6 0.254-1.78 0.122-1.78 0.122-3.59 0.246-2.95 0.127-2.95 0.127-5.04 1.32-0.33 0.66-0.66 1.32-1 2-3.96-0.33-7.92-0.66-12-1-1.52 4.92-1.52 4.92-2 10-0.99-0.33-1.98-0.66-3-1-0.495-1.49-0.495-1.49-1-3h2l-2-2c-0.33 0.66-0.66 1.32-1 2h-2v-8c2.49-1.25 3.41-0.777 6 0-0.0412-0.928-0.0825-1.86-0.125-2.81 0.125-3.19 0.125-3.19 2.12-6.19v-2c-1.11-0.433-1.11-0.433-2.25-0.875-2.32-0.948-4.53-1.97-6.75-3.12v-3c-0.784-0.309-1.57-0.619-2.38-0.938-2.62-1.06-2.62-1.06-4.62-2.06 0.33-0.66 0.66-1.32 1-2z" fill="#2DBDFA"/>
<path transform="translate(488,891)" d="m0 0c2.24 3.37 2.29 4.62 2.41 8.58 0.0388 1.2 0.0777 2.39 0.118 3.63 0.0319 1.35 0.063 2.7 0.0933 4.04 0.0183 0.689 0.0367 1.38 0.0556 2.09 0.411 15.5 0.425 31.1 0.444 46.6 0.00268 1.21 0.00536 2.43 0.00812 3.68 0.00587 3.51 0.00412 7.02-3.05e-4 10.5 0.00296 1.57 0.00296 1.57 0.00598 3.17-0.0196 6.28-0.385 12.4-1.14 18.7h-2c-0.879-3.76-1.11-7.21-1.06-11.1 0.00902-1.02 0.018-2.04 0.0273-3.1 0.0116-0.937 0.0232-1.87 0.0352-2.84v-4-64h-1v-9h1c0.33-2.31 0.66-4.62 1-7z" fill="#2FB7FA"/>
<path transform="translate(1011,639)" d="m0 0c8.68 0.334 15.9 4.24 23 9 0.268 0.681 0.536 1.36 0.812 2.06 0.392 0.639 0.784 1.28 1.19 1.94 2.98 0.747 2.98 0.747 6 1l2 1v2h-9c-0.66 1.32-1.32 2.64-2 4-0.763-0.639-1.53-1.28-2.31-1.94-2.57-2.2-2.57-2.2-5.69-3.06 0.33-1.32 0.66-2.64 1-4-1.11-0.433-1.11-0.433-2.25-0.875-2.32-0.948-4.53-1.97-6.75-3.12v-3c-0.784-0.309-1.57-0.619-2.38-0.938-2.62-1.06-2.62-1.06-4.62-2.06 0.33-0.66 0.66-1.32 1-2z" fill="#2FB7FA"/>
<path transform="translate(1019,706)" d="m0 0v5c-0.976 0.277-1.95 0.554-2.96 0.84-1.29 0.366-2.57 0.732-3.86 1.1-1.26 0.36-2.53 0.719-3.83 1.09-2.13 0.618-4.25 1.27-6.36 1.97-0.33 0.66-0.66 1.32-1 2-3.08 2.74-6.14 3.71-10 5-0.33 0.66-0.66 1.32-1 2-2.7 0.639-5.33 1.17-8.06 1.62-0.759 0.134-1.52 0.268-2.3 0.406-1.88 0.331-3.76 0.651-5.64 0.969v-2l36-18c1.04-0.573 2.09-1.15 3.16-1.74 2.84-1.26 2.84-1.26 5.84-0.263z" fill="#2FB7FA"/>
<path transform="translate(1173,759)" d="m0 0v2h2v12c0.66 0.33 1.32 0.66 2 1h-2c0.66 1.65 1.32 3.3 2 5-0.66 0.33-1.32 0.66-2 1-0.652 2.02-0.652 2.02-1 4-0.66-0.99-1.32-1.98-2-3-0.99 0.99-1.98 1.98-3 3v-9h-2c-0.33-4.95-0.66-9.9-1-15 3-1 3-1 7-1z" fill="#2DBDFA"/>
<path transform="translate(1014 727)" d="m0 0c0.949 0.351 1.9 0.701 2.88 1.06v10c-0.99 0.495-0.99 0.495-2 1v-2c-0.615 0.156-1.23 0.312-1.86 0.473-0.808 0.195-1.62 0.389-2.45 0.59-0.801 0.197-1.6 0.394-2.43 0.598-2.26 0.34-2.26 0.34-5.26-0.66v-3h2v-5h3c0.33-0.99 0.66-1.98 1-3 2-1 2-1 5.12-0.0625z" fill="#2DBDFA"/>
<path transform="translate(1060,660)" d="m0 0c2.64 0.99 5.28 1.98 8 3v2h-2c1.32 1.65 2.64 3.3 4 5-0.99 0.66-1.98 1.32-3 2v1c-1.26 0.0206-2.52 0.0412-3.81 0.0625-0.708 0.0116-1.42 0.0232-2.14 0.0352-2.04-0.0977-2.04-0.0977-5.04-1.1-0.949-2.07-0.949-2.07-1.69-4.56-0.251-0.826-0.503-1.65-0.762-2.5-0.182-0.638-0.364-1.28-0.551-1.93 2.97 0.33 5.94 0.66 9 1v-2h-2v-2z" fill="#2DBDFA"/>
<path transform="translate(582,620)" d="m0 0c-1.76 3.52-5.43 4.69-9 6-3.33 0.581-6.62 0.862-10 1v-3c-1.32-0.66-2.64-1.32-4-2v-2c7.21-2.4 15.6-0.972 23 0z" fill="#2DBDFA"/>
<path transform="translate(567 703)" d="m0 0c1.45 0.0309 1.45 0.0309 2.94 0.0625-0.33 0.99-0.66 1.98-1 3h2c-0.33 1.65-0.66 3.3-1 5h-4c-0.33-0.66-0.66-1.32-1-2l-2 1c-0.0425-2-0.0408-4 0-6 1-1 1-1 4.06-1.06z" fill="#2DBEFA"/>
<path transform="translate(571,758)" d="m0 0c2.66 2.66 2.26 4.66 2.27 8.28-0.00773 0.815-0.0155 1.63-0.0234 2.47 0.00773 0.799 0.0155 1.6 0.0234 2.42-0.0154 4.67-0.489 8.44-2.27 12.8h-1c0.33-8.58 0.66-17.2 1-26z" fill="#30B7FA"/>
<path transform="translate(1151,708)" d="m0 0c4.56 0.438 7.58 0.85 11 4-7.43 0.286-7.43 0.286-11-2v-2z" fill="#30B7FA"/>
</svg>
